<?xml version="1.0" encoding="utf-8"?>
<!-- Generator: Adobe Illustrator 21.0.0, SVG Export Plug-In . SVG Version: 6.00 Build 0)  -->
<svg version="1.1" id="Layer_1" xmlns="http://www.w3.org/2000/svg" xmlns:xlink="http://www.w3.org/1999/xlink" x="0px" y="0px"
	 viewBox="0 0 1000 1000" style="enable-background:new 0 0 1000 1000;" xml:space="preserve">
<style type="text/css">
	.st0{fill:#9E1E22;}
	.st1{fill:#EEDD12;}
</style>
<g>
	<path class="st0" d="M500,812.3c-199.4,0-361.6-163.1-361.6-363.6C138.4,248.2,300.6,85,500,85s361.6,163.1,361.6,363.6
		C861.6,649.2,699.4,812.3,500,812.3z"/>
	<path class="st1" d="M413.8,354.9c0,0,11.1-10.9,22.9-10.9s23.9,0,23.9,0s-1.5-11.3,8.4-10.8c4.6,1.9,4.6,1.9,4.6,1.9
		s3.5-6.4,7.8-5.1c4.3,1.3,4,4.3,4,4.3l2.1,0.8c0,0,5.7-6.4,12-2.1c5.7,0.3,5.7-5.1,7.8-5.1c2.1,0,5.4,5.1,1.6,8.6
		c0.3,3.8,0.5,15.1-9.5,15.1c-4.6-5-2.4-8.6-2.4-8.6s-7.9,5-8.6,1.1c-0.7-3.9-3.2,8.2-6.8,3.6c-3.6-4.6-4.6-7.1-6.8-6.2
		c-2.1,0.8-7.3,6.2-12.7,5.9c-5.4-0.4-15.7-1.3-15.9,0.5c-0.2,1.8,10.9,5.2,11.1,6.1c5.5-2.1,10.7-2.5,12.3-1.4c0,0-9.6,3.9-9.6,4.6
		s-9.3,13.9,0.4,14.7c4.1-3.2,4.1-15.7,8.4-13.8c0,0,4.2,6.9,1,12.8c-3.2,5.9-7.8,9.1-14.7,8.3c0,4,3.8,19.3-11.3,23.3
		c-13.7,0.3-14.7-1.9-16.1-1.6c-1.3,0.3-3.8,3.5-10.2,1.6c0,0-2.1,3.8-5.9,4c-3.8,0.2-12.9-2.5-9.1-9.1c4.1,0.2,7.1,3.9,9.5,1.1
		c0.5-3.9,1.4-4.3,1.4-4.3s1.1,2.1,3,2.3c2,0.2,3.2-3.2,5.2-3.4c2-0.2,9.5,3.2,11.1,0.2c1.6-3,3-13.6-0.4-14.7
		c-1.1,3.6-1.8,3.8-1.8,3.8s-1.4-3.4-3.6-3.6c-2.1-0.2-3.6,3.6-4.5,3.7c-0.9,0.1-5.5-4.2-6-4.2c-0.5,0-1.2,3.8-2.4,3.8
		c-1.2,0-3.1-5.1-2.5-5.1c0.5,0-4.6-0.8-4.7-0.1c-0.1,0.7,1.1,6.2-1.3,6c-2.4-0.2-3.8-3.4-3.8-4.6s-1.9,1.7-2.6,1.2
		c-0.7-0.5-7-5.2-5.1-8.8c0,0-6.1-5.9-2-13.4C399.8,350.7,413.8,354.9,413.8,354.9z"/>
	<path class="st0" d="M426.6,359.2c0,0,16.4,0.2,20.7-2.1c0,0-4.5,6.6-8.4,6.6S426.6,359.2,426.6,359.2z"/>
	<path class="st0" d="M400.2,363.7c0,0,2.3,7.1,0.7,8c3.4,0.9,27,2.5,29.8-0.2c0,0-9.8,6.1-28.8,3.2
		C402,374.8,395,373.8,400.2,363.7z"/>
	<path class="st1" d="M428.2,385.2c0,0-17.3-2.1-19.3,0c0,0-10.6,5.1-13.1,0.6c-2.5-4.5-5.9-3.8-5.9-3.8s-0.4,5.4,1.9,5.2
		c-1,4,0.3,3.9,1.8,3.8c1.4-0.1,10.1,5.5,18.3-0.3c2.5-1.7,5.3-2.8,8.2-3.7C425.3,385.7,428.2,385.2,428.2,385.2z"/>
	<path class="st1" d="M496.9,354.1c0,0,0.7,7.5-3.8,7.7c-4.5,0.2-14.4,1.4-14.3-2.3c-5.4-1.3-6.4-2.9-6.4-2.9s18.1,0.7,18.4-0.9
		c0.3-1.6-14.1-1.3-15.3-2c-1.2-0.7-1.4-2.9-1.4-2.9s-5.4-1.2-6.6-1.9c-1.2-0.7,5.5-2.7,6.8-2.4c1.3,0.3,7.9,5.1,10.5,3.5
		c2.5-1.6,8.6,0.7,8.6,0.7L496.9,354.1z"/>
	<path class="st1" d="M473.1,365.6c0,0,2.3-2.5,4.7-1.3c2.4,1.2,2.6,2.9,2.6,2.9s4.5,2.7,4.3,5.1c0,0,2.6,4.9,0,6.4
		c-2.6,1.5-4.4,3.2-5.2,0c-0.8-3.2-0.8-6.4-1.7-6.5C477,372.1,471.6,367.5,473.1,365.6z"/>
	<path class="st1" d="M482.4,384c0,0-1.4-3.7,2.4-3.5c3.8,0.2,3.5,8.5,2.9,9.2c-0.6,0.7-3.3,3.3-2.6,3.8c0.7,0.5,5.6,5.6,3.1,7.8
		c-2.5,2.1-1.4,4-3.6,4.1c-2.2,0.1-6-1.3-6.1-2.2c-0.1-1-0.8-5.7,1.4-6.7c2.2-1,1.5-4.5,0.8-4.7c-0.7-0.2-2.8-5.9-0.2-5.9
		c2.7,0,4.4-0.3,3.9-0.9C483.9,384.3,482.4,384,482.4,384z"/>
	<path class="st1" d="M412.3,455.7c0,0-2.1,6.4-6.6,5c-4.4-1.5-7.5-12.1-4.2-13.9c3.4-1.9,2.8,2.4,5.8,4.2
		C410.3,452.6,413.5,453.3,412.3,455.7z"/>
	<path class="st1" d="M424.8,456c0,0-1,4-4.2,3.7c-3.2-0.4-6.8-5.7-5.5-7.9c1.3-2.1,4.1,0.7,5.9,1.2
		C422.7,453.4,425.3,454.7,424.8,456z"/>
	<path class="st1" d="M428.2,455.3c0,0-5.7-8.1,0-9.1c5.4,1.8,2.7,4.1,4.8,3.5c2.1-0.5,3.9-0.9,4,0.2c0.2,1.1,2.9,3,0.6,4.3
		C435.4,455.5,430,456.2,428.2,455.3z"/>
	<path class="st1" d="M449,453.6c0,0-7.4,0-8.6-3.8c-1.2-3.8,4.2-4.3,6.6-3.5c2.4,0.7,4.6,1.4,3.6,3.5
		C449.6,452,449,453.6,449,453.6z"/>
	<path class="st1" d="M450.6,441.6c0,0,3.7-0.5,4.8-0.9c1.1-0.4,6.1-1.4,6.3,0.4c0.2,1.9-1.8,2.6-1.8,3.3c0,0.7-1.4,4.6-3.7,3.9
		C453.8,447.7,447.6,443,450.6,441.6z"/>
	<path class="st1" d="M460.8,436.6"/>
	<path class="st1" d="M461.7,436.6c0,0,4.8-0.3,4.9-1.6c0.1-1.3-0.8-5,1.2-5.2c2-0.3,4.6,4.2,2.4,6.8c-2.1,2.7-5.1,3.5-6.4,2.9
		C462.4,439,461.7,436.6,461.7,436.6z"/>
	<path class="st1" d="M476.5,428.3c-0.4,0.9-1.4,1.3-2.3,1c-2.1-0.6-5.2-1.8-4.9-4c0.4-3.4,3.5-3.9,5.4-2.5s0.4-4.7,2.9-4
		c2.5,0.7,3.5,4,3.5,4s-0.8,3.8-2.8,4C477.4,426.9,476.8,427.6,476.5,428.3z"/>
	<path class="st1" d="M476,415.7c0,0,1.2-1.5,2.3-3.1c1.2-1.6-0.4-5.5,2.8-5.1c3.2,0.4,5.5,1.1,4.8,3.2s-1.5,6.7-2.9,6.8
		c-1.5,0.1-2.7,0.3-4.2,0C477.3,417.3,476,415.7,476,415.7z"/>
	<path class="st1" d="M469.7,376.4c0,0,2.9-1,5-0.8c2,0.2,3.1,0.8,3.1,0.8s0.5,3.5-1.7,3.5C473.7,379.9,469.7,376.4,469.7,376.4z"/>
	<path class="st1" d="M464,382.1c0,0,6.4-0.4,9.7,0c3.3,0.4,4.3,3,3.1,4.1s-4.6,2.2-6.1,1.6c-1.5-0.7-2.1-2.6-3.9-2.8
		C464.8,384.7,462.8,382.1,464,382.1z"/>
	<path class="st1" d="M463.7,388.8c0,0,5.4,0.5,8.5,0.5s5.4,0.7,5.6,2c0.3,1.3,2.6,5.2,0,5.5c-2.6,0.4-6.1,0.3-9.1-0.4
		c-3-0.6-3.2-2.4-3.6-3.6C464.7,391.8,463.7,388.8,463.7,388.8z"/>
	<path class="st1" d="M462.1,397.9c-0.6,0.3-0.9,1.1-0.6,1.7c0.7,1.7,2.4,4.9,4.3,5.1c2.6,0.3,3.1,5,4.6,5.2
		c1.5,0.2,3.9-1.7,5.5-1.9c1.6-0.2,2.1-6.4-0.8-6.6c-2.9-0.2-6.3-1.5-7.8-2.1C466.1,399,464.2,397,462.1,397.9z"/>
	<path class="st1" d="M458.3,403.8c0,0-1.1,5.3,0,6.2c1.1,0.9,7.2,7.1,8.8,7.1c1.5,0,3.9-0.8,3.4-2.3c-0.5-1.5-5.4-6.1-6.3-6.7
		s-2-3.1-2.7-4.3C460.7,402.7,459.7,402.1,458.3,403.8z"/>
	<path class="st1" d="M451.3,408c0,0-0.9,6.3,0,7.8c0.9,1.5,7.8,7,7.8,8.8c0,1.9,5.6,5.5,6.3,2.1c0.7-3.4,0.2-7.6-1.7-8.1
		c-1.9-0.5-9.5-3.8-8.9-10.7C453.7,406.4,451.3,408,451.3,408z"/>
	<path class="st1" d="M440.8,415.1c0,0-2.3,5.4,0,7.1c2.3,1.7,7.9,7.5,7.8,8.8c-0.1,1.3,1.9,9,7.1,4.3c5.2-4.7-9-14.3-8.9-17.7
		C447,414.3,441.8,414.9,440.8,415.1z"/>
	<path class="st1" d="M433.7,414.9c0,0-1.3,6.9,0.5,9.1c1.9,2.2,0,10.5,1.9,11.7c1.9,1.2,5,8,8.3,7.1s-0.3-9.8-1.1-11
		s-2.3-4.3-2.3-6c0-1.7-5-6.2-4.6-8.8C437,414.6,433.7,414.9,433.7,414.9z"/>
	<path class="st1" d="M427.2,411.9c0,0,0,0.2-0.1,0.7c-0.3,3.2-1.4,16.9-1.4,17.8c0,1.1-2.1,11.1,3.6,13.3c5.8,2.1,8.6,1.5,7.5,0
		s-6.8-12-6.8-14.3C430,427,427.2,411.9,427.2,411.9z"/>
	<path class="st1" d="M432.2,411.2"/>
	<path class="st1" d="M419,413.6c0,0-4.8,24.7-2.9,29.4c2,4.7,4.5,9.7,6.3,5.5c1.8-4.2,0.5-10,0-11.9
		C421.8,434.6,417.3,415,419,413.6z"/>
	<path class="st1" d="M412.6,438.2c0,0,1.3-19.8,3.1-22.2c1.7-2.3,2.4-7,1.5-7c-0.9,0-19.3,27.4-10.8,35.9
		C414.8,453.6,412.6,438.2,412.6,438.2z"/>
	<path class="st1" d="M420.1,405.4c0,0,6.2-2,8.2-1c2,0.9,3.6,2,2,3.1c-1.6,1.1-5.1,2.8-7,1.6C421.4,407.9,420.1,405.4,420.1,405.4z
		"/>
	<path class="st1" d="M431.2,409.1c0,0,5-3.2,6.8-2.7c1.8,0.5,2.9,0.4,2.9,0.4s3.1-2.9,4.9-2.3c1.9,0.6,2.5,1.7,2.5,2.9
		c0,1.2-3.9,0.8-4.9,2C442.4,410.8,432.7,411.9,431.2,409.1z"/>
	<path class="st1" d="M448.4,402.8c0,0,0.2-0.7,1.7-1.5c1.5-0.8,2.6-1.8,3.7-2.4c1.1-0.6,0.9-4.6,1.9-4.9c1-0.4,4,0,4,0
		s-0.4,3.8-1.3,4.7c-1,0.9-5.1,5.5-6.3,5.8C450.8,404.8,448.4,402.8,448.4,402.8z"/>
	<path class="st1" d="M458.3,387.8c0,0-2.4-3.7,0-3.9c2.4-0.1,4.4,0.2,4.6,1c0.1,0.4-0.2,1.2-0.4,2c-0.4,1-1.5,1.6-2.5,1.3
		L458.3,387.8z"/>
	<path class="st1" d="M414.8,466.6c0,0-1.3-6.1,0-5.7c1.3,0.4,8.6,2.9,10.1,0.9c1.5-2,2.9-3.3,4.5-2.1c1.6,1.2,3.6,1.9,5,1.2
		c1.4-0.7,3.9-6.4,7.5-5.2c3.6,1.2,10,2,10.4,0.9c0.4-1.1,1.9-5.5,4.7-5.6c2.8-0.1,7.8-5.8,8.8-6c1-0.2,3.7-1.3,5.7-3.6
		c2-2.3,0.9-7.5,2.4-8c1.5-0.5,3.7-1.1,5.6-2.5c2-1.4,4-7.3,4.2-9.1c0.2-1.8,5.2-4.5,8.8-4.6s12.8-6.8,17.1-13.3
		c4.1-6.3,47.3-25.5,71.4-5.6c2.3,1.9,5.8,2.3,8.2,0.5c5-3.8-0.7-9.9-0.9-10.8c0,0-1.4-8.3-21.8-8.1c-20.4,0.3-41-0.3-46.1-14.1
		c-5.1-13.8-7-32.3,11.4-37.9c18.4-5.6,25.4,6.9,26.6,8.1c0,0,4.6,4.3,6.9,4.3s5.2,1.1,5.2,2.3c0,1.3,3.6,0.5,3.5,3
		c-0.1,2.5-2.7,4.8,0.4,5.5c3.1,0.7,3.8-1.4,3.4-2.2c-0.4-0.8-3.3-3.2-1.5-3.6c1.8-0.3,7.9-0.6,7.9,1.6s5.7,4.5,8.4,4.5
		c2.7,0,0.4,6.8-3.3,6.8c-3.8,0-10.5,0.4-11.3-2.7c0,0-5.1,4.5-9.9,3.9c-4.8-0.5-9.6-6.6-10.9-8.1c-1.3-1.5-6.5-3-6.5-1.4
		c0,1.6,5.6,2.9,5.7,3.8c0.1,0.8-1.5,4.9-1.5,4.9s-16.7,0.2-17.5-8.6c-1.2-2.1-0.7-5.5,0.5-7.2c1.2-1.7-0.9-4.6-2.7-4.4
		c-1.7,0.1-10.7,5.8-7.9,14.2c2.8,8.4,4.6,16,28.5,15.6c23.9-0.4,54.7,9.2,50.7,26.6c-4,17.5-11,17.8-11,17.8s10.2,16.1,2.7,30
		c5.9,2.7,2.7,41.5,20.4,40.2c0,0-11.8,23.7-3.8,31c0,0-13.4,5.4-13.2,15.4c0.2,10-21.1,6.6-21.1,6.6s-5.5-7.3-1.3-9.3
		c4.3-2,6.1-3,6.1-3s-10.3-1-8.4,11.1c-5.9,3.1-8.8-4.6-8.8-4.6s-2.3,5-4,3.9c-1.7-1.1-6.6-11,0.4-15.5s16.8,0.8,18.5-1.5
		c1.7-2.3,7-9.6,9.8-9.6c-0.4-8.2,0.5-14.7,0.5-14.7S561.7,479.5,558,451c-8-17.8-13.9-16.3-13.9-16.3s6.6,8.2,3.9,9.6
		c-2.7,1.4-7.7,3.2-9.8,3.2c-2.1,0-7.3-7.7-10.5-5.9c-3.2,1.8-27.3,35.6-33.2,35.7c-5.9,0.2-12.3-9.1-12.3-16.4
		c0-7.3-5-11.3-6.1-9.1c-1.1,2.1-2.5,28.9,16.6,30.2c0,0-14.7,22.3-2.5,33.2c0,0-7.5,6.1-7.3,10.9c0.2,4.8-1.4,13.2-12.7,13
		c-11.3-0.3-11.9-2.1-10.6-3.9c1.3-1.7,3.1-5.9,3.1-5.9s-1.7,2-5.8,5.1c-4,3.1-8.8,0.8-8.3-0.4c0.5-1.2-0.1-3.5-0.1-3.5
		s-2,1.6-3.1,1.5c-1.1-0.1-0.4-5.6-0.4-5.6s0.4-4.5,9.5-4.2c9.1,0.4,12.9-1.4,12.9-5c0-3.6-2.9-20.4,0.7-24.1
		c-8.6-4.1-28.2-15.7-26-28c0,0-7.6,18.1,18.1,25.9c0,0-36.6,0.9-45.2-23.8"/>
	<path class="st1" d="M449.7,507.5c0,0-3.6-15.9,11.5-9.8c1.1,13.1-1.2,21.2-1.2,21.2s-12.3,0.1-14.1,2c-1.7,1.9-8.3,4.6-7.5,9.5
		c-1.7,5-12.7,2.7-12.6-1.9c0.1-4.6,4.4-7.2,4.4-7.2s-7.6,1.6-8,5.9c-0.2,2.4-1.4,1.8-3.3,3.2c-1.1-0.3-2-1.5-1.9-3.9
		c0.1-5.4,4-9.6,8.3-9.2c4.3,0.4,12.3-0.9,17,0.4c3.8-2.4,1.2-2.1,3.8-2.4C446.3,511.5,449.7,507.5,449.7,507.5z"/>
	<path class="st1" d="M539.6,491.4c0,0-32.3-23-18.9-37.8c8-9.1,11-3.8,14.5-2.6c3.5,1.2,10.7-8.3,14.5-3.4
		c3.8,4.9,6.4,10.8,5.6,14.5c3.8,1.9-0.8,28.9,11.3,30.6c0,0-20.4,19.1-14.7,23.3c4.6,3.5,1.3,7.9-3.5,8.1
		c-0.9,5.9-8.4,13-17.2,12.3c-8.8-0.7-6.6-4.6-6.6-8.2l-2.8,1.3c0,0-1.6,4.3-0.3,5.5c0.7,0.6-0.6,1.2-2,1.6c-2.6,0.8-5.6-0.4-6.5-3
		c-0.5-1.3-0.5-2.8,0.7-4.6c0,0-3.6,6.2-5.1,6.6c-1.5,0.4-4-0.7-4-0.7s-0.3-10.3,6-11.7c6.3-1.3,15.5-2,17.2-2.7
		C529.3,519.9,546.3,506.8,539.6,491.4z"/>
	<g>
		<path class="st1" d="M460.9,158.7c0,0-9.6-52.7,7.2-53.9c18.5-1.3,28.4-1.9,29.5,16.1c1.1,19-1.3,40.5-1.3,40.5h-5.8
			c0,0,1.6-44-4.8-45.1c-7.4-1.3-17.5-2-18.6,3.4c-1.1,5.4,0.4,43.1,0.4,43.1H462L460.9,158.7z"/>
		<path class="st1" d="M472.9,162.8c0,0-4.6-37.4-1.3-40.3c3.4-2.9,13.2-1.6,13,1.1c-0.2,2.7,3.9,33.6,2,38c0,0-3,1.3-4.2-0.4
			c-0.9-1.3-1-20.9-2.9-29c-0.2-1-2.5-1-2.5,0c-0.6,7.3-0.5,24.7,0.2,30.3C477.2,162.4,475.2,163,472.9,162.8z"/>
	</g>
	<g>
		<path class="st1" d="M499.9,156.1c0,0-2.6-53.5,14.3-52.4c18.5,1.2,28.4,1.9,27.1,19.9c-1.4,19-6.7,39.9-6.7,39.9l-5.7-0.8
			c0,0,7.4-43.4,1.3-45.3c-7.2-2.3-17.1-4.3-18.9,0.9c-1.8,5.2-5.3,42.7-5.3,42.7l-5.6-0.7L499.9,156.1z"/>
		<path class="st1" d="M511.2,161.7c0,0,0.4-37.7,4.1-40.1c3.7-2.4,13.3,0.2,12.8,2.8c-0.5,2.6-0.6,33.8-3.1,37.9c0,0-3.2,0.9-4.2-1
			c-0.8-1.4,1.8-20.9,1-29.2c-0.1-1-2.3-1.4-2.5-0.3c-1.6,7.1-3.8,24.4-3.8,30.1C515.5,161.9,513.5,162.3,511.2,161.7z"/>
	</g>
	<g>
		<path class="st1" d="M538.8,158.7c0,0,4.6-53.3,21.2-50.1c18.2,3.6,27.9,5.7,24.2,23.3c-3.9,18.7-12,38.7-12,38.7l-5.6-1.5
			c0,0,13.1-42,7.3-44.8c-6.8-3.2-16.4-6.5-18.8-1.7c-2.4,4.9-11,41.7-11,41.7l-5.4-1.5L538.8,158.7z"/>
		<path class="st1" d="M549.3,165.8c0,0,5.4-37.3,9.4-39.2c4-1.9,13.2,1.9,12.3,4.5c-0.9,2.5-5.1,33.4-8.1,37.1c0,0-3.3,0.4-4-1.5
			c-0.6-1.5,4.6-20.5,4.9-28.8c0-1-2.1-1.7-2.5-0.7c-2.5,6.8-7,23.7-7.8,29.3C553.5,166.5,551.5,166.6,549.3,165.8z"/>
	</g>
	<g>
		<path class="st1" d="M577.1,166.5c0,0,11.6-52.3,27.7-46.8c17.5,6,26.9,9.3,20.9,26.3c-6.4,18-17,36.7-17,36.7l-5.3-2.2
			c0,0,18.6-39.9,13.2-43.4c-6.3-4.1-15.3-8.7-18.4-4.1c-3.1,4.5-16.4,39.8-16.4,39.8l-5.2-2.2L577.1,166.5z"/>
		<path class="st1" d="M586.5,174.8c0,0,10.3-36.3,14.6-37.6c4.2-1.3,12.8,3.7,11.6,6.1c-1.2,2.4-9.5,32.5-13,35.7c0,0-3.3,0-3.8-2
			c-0.3-1.6,7.3-19.7,8.6-27.9c0.2-1-1.9-1.9-2.3-1c-3.4,6.4-10.1,22.5-11.6,28C590.6,176.2,588.6,176,586.5,174.8z"/>
	</g>
	<g>
		<path class="st1" d="M613.9,179.2c0,0,18.5-50.2,33.6-42.7c16.6,8.3,25.4,12.8,17.2,28.8c-8.7,17-21.8,34.2-21.8,34.2l-5-2.9
			c0,0,23.8-37,18.9-41.2c-5.7-4.9-14.1-10.6-17.7-6.6s-21.6,37.3-21.6,37.3l-4.8-2.9L613.9,179.2z"/>
		<path class="st1" d="M622.2,188.8c0,0,15.1-34.6,19.4-35.3c4.4-0.7,12.2,5.3,10.7,7.6c-1.5,2.2-13.7,30.9-17.6,33.7
			c0,0-3.3-0.4-3.4-2.5c-0.1-1.6,9.8-18.5,12.3-26.5c0.3-1-1.6-2.1-2.2-1.3c-4.2,5.9-13,21-15.2,26.2
			C626.1,190.7,624.1,190.2,622.2,188.8z"/>
	</g>
	<g>
		<path class="st1" d="M648.8,196.8c0,0,25-47.3,39-37.8c15.3,10.4,23.5,16.1,13.2,30.9c-10.9,15.6-26.1,31-26.1,31l-4.5-3.6
			c0,0,28.5-33.5,24.2-38.4c-5-5.6-12.5-12.4-16.7-8.9c-4.2,3.5-26.3,34.1-26.3,34.1l-4.4-3.5L648.8,196.8z"/>
		<path class="st1" d="M655.7,207.4c0,0,19.5-32.3,24-32.4c4.4-0.1,11.4,6.9,9.6,8.9c-1.8,2-17.7,28.8-22,31c0,0-3.2-0.9-3.1-2.9
			c0.1-1.6,12.2-17.1,15.7-24.6c0.4-0.9-1.3-2.3-2-1.6c-5,5.3-15.7,19.1-18.6,24C659.3,209.7,657.4,209,655.7,207.4z"/>
	</g>
	<g>
		<path class="st1" d="M681,218.8c0,0,31.1-43.6,43.7-32.3c13.8,12.3,21.1,19.1,9,32.4c-12.9,14.1-30,27.2-30,27.2l-4-4.1
			c0,0,32.7-29.4,29.1-34.8c-4.2-6.2-10.8-14-15.3-11c-4.6,3-30.6,30.3-30.6,30.3l-3.9-4L681,218.8z"/>
		<path class="st1" d="M686.4,230.2c0,0,23.6-29.4,28.1-28.9c4.4,0.4,10.4,8.4,8.3,10.1c-2,1.7-21.4,26.2-25.9,27.8
			c0,0-3-1.3-2.7-3.3c0.3-1.6,14.4-15.3,18.8-22.3c0.6-0.9-1-2.5-1.8-1.8c-5.7,4.6-18.1,16.8-21.6,21.3
			C689.7,233.1,687.9,232.1,686.4,230.2z"/>
	</g>
	<g>
		<path class="st1" d="M710,245c0,0,36.6-39.1,47.6-26.2c12,14.1,18.4,21.7,4.6,33.3c-14.6,12.2-33.3,23-33.3,23l-3.4-4.6
			c0,0,36.3-24.8,33.4-30.6c-3.3-6.7-8.8-15.3-13.7-12.9c-4.9,2.3-34.4,25.9-34.4,25.9l-3.3-4.5L710,245z"/>
		<path class="st1" d="M713.9,257c0,0,27.3-26,31.7-25c4.3,1,9.2,9.7,6.9,11.1c-2.3,1.4-24.7,23.1-29.4,24.1c0,0-2.8-1.7-2.2-3.7
			c0.5-1.5,16.3-13.2,21.6-19.6c0.7-0.8-0.6-2.6-1.5-2c-6.2,3.8-20.1,14.3-24.3,18.2C716.7,260.2,715,259,713.9,257z"/>
	</g>
	<g>
		<path class="st1" d="M735.2,274.7c0,0,41.5-33.8,50.7-19.6c10.1,15.6,15.3,24,0.1,33.6c-16.1,10.2-36.1,18.3-36.1,18.3l-2.8-5
			c0,0,39.3-19.8,37.2-25.9c-2.4-7.1-6.7-16.3-11.9-14.7c-5.2,1.6-37.5,21.1-37.5,21.1l-2.7-4.9L735.2,274.7z"/>
		<path class="st1" d="M737.5,287.2c0,0,30.6-22.1,34.7-20.5c4.1,1.6,7.8,10.8,5.3,11.9c-2.4,1.1-27.5,19.6-32.3,20
			c0,0-2.6-2-1.7-3.9c0.7-1.5,17.9-11,24-16.5c0.8-0.7-0.3-2.7-1.2-2.2c-6.7,2.9-21.9,11.5-26.5,14.8
			C739.8,290.7,738.3,289.3,737.5,287.2z"/>
	</g>
	<g>
		<path class="st1" d="M756.3,307.6c0,0,45.6-28,52.9-12.7c7.9,16.8,12,25.8-4.4,33.3c-17.3,7.9-38.2,13.4-38.2,13.4l-2.1-5.4
			c0,0,41.6-14.4,40.3-20.7c-1.4-7.4-4.5-17-9.8-16.1c-5.4,0.9-40,15.9-40,15.9l-2-5.2L756.3,307.6z"/>
		<path class="st1" d="M756.8,320.2c0,0,33.2-17.8,37.1-15.7c3.9,2.1,6.3,11.8,3.7,12.6s-29.9,15.8-34.7,15.5c0,0-2.3-2.4-1.2-4.1
			c0.9-1.3,19.2-8.5,26-13.2c0.9-0.6,0.1-2.7-0.9-2.4c-7,2-23.2,8.4-28.2,11.2C758.7,324.1,757.4,322.5,756.8,320.2z"/>
	</g>
	<g>
		<path class="st1" d="M772.8,342.9c0,0,49-21.7,54.1-5.6c5.6,17.7,8.5,27.2-8.7,32.4c-18.2,5.6-39.7,8.2-39.7,8.2l-1.3-5.6
			c0,0,43.1-8.7,42.7-15.2c-0.4-7.5-2.2-17.5-7.6-17.3c-5.5,0.2-41.8,10.5-41.8,10.5l-1.3-5.5L772.8,342.9z"/>
		<path class="st1" d="M771.7,355.5c0,0,35.3-13.3,38.9-10.6c3.6,2.6,4.7,12.5,2,12.9c-2.6,0.5-31.7,11.7-36.5,10.8
			c0,0-2-2.7-0.6-4.2c1.1-1.2,20.1-5.8,27.6-9.6c0.9-0.5,0.4-2.6-0.6-2.5c-7.2,1.1-24.1,5.3-29.4,7.3
			C773,359.6,771.9,357.8,771.7,355.5z"/>
	</g>
	<g>
		<path class="st1" d="M784.4,380.2c0,0,51.4-15,54.3,1.7c3.2,18.2,4.8,28.1-13,31c-18.8,3.1-40.4,2.8-40.4,2.8l-0.6-5.7
			c0,0,43.9-2.9,44.4-9.3c0.6-7.5,0.2-17.6-5.2-18.1s-42.8,4.8-42.8,4.8l-0.6-5.6L784.4,380.2z"/>
		<path class="st1" d="M781.6,392.5c0,0,36.8-8.4,40-5.4c3.2,3.1,3,13,0.3,13.1c-2.7,0.1-33,7.3-37.6,5.8c0,0-1.6-2.9,0-4.3
			c1.2-1.1,20.7-3.1,28.6-5.9c1-0.3,0.8-2.5-0.3-2.5c-7.3,0.1-24.6,2-30.2,3.3C782.4,396.7,781.6,394.8,781.6,392.5z"/>
	</g>
	<g>
		<path class="st1" d="M791,418.6c0,0,52.9-8,53.6,8.9c0.7,18.5,1,28.5-17,29c-19.1,0.5-40.4-2.6-40.4-2.6l0.2-5.8
			c0,0,43.9,3,45.2-3.4c1.6-7.4,2.5-17.4-2.8-18.7c-5.3-1.2-43.1-0.9-43.1-0.9l0.2-5.6L791,418.6z"/>
		<path class="st1" d="M786.6,430.5c0,0,37.6-3.5,40.3,0c2.8,3.5,1.2,13.3-1.5,13c-2.7-0.3-33.7,2.9-38,0.8c0,0-1.2-3.1,0.5-4.2
			c1.3-0.9,21-0.3,29.1-2c1-0.2,1.1-2.4,0.1-2.5c-7.2-0.9-24.6-1.3-30.3-0.7C786.8,434.8,786.3,432.8,786.6,430.5z"/>
	</g>
	<g>
		<path class="st1" d="M792.4,457.6c0,0,53.5-0.9,52,16c-1.7,18.4-2.8,28.3-20.7,26.5c-19-2-39.7-8-39.7-8l0.9-5.7
			c0,0,43.1,8.8,45.3,2.7c2.5-7.1,4.8-16.9-0.3-18.9c-5.1-1.9-42.6-6.6-42.6-6.6l0.9-5.6L792.4,457.6z"/>
		<path class="st1" d="M786.5,468.8c0,0,37.7,1.5,40,5.4c2.3,3.8-0.6,13.3-3.2,12.7c-2.6-0.6-33.8-1.6-37.8-4.3c0,0-0.8-3.2,1.1-4.1
			c1.5-0.7,20.8,2.5,29.1,1.9c1-0.1,1.4-2.3,0.4-2.5c-7.1-1.8-24.3-4.5-30-4.7C786.1,473.1,785.8,471,786.5,468.8z"/>
	</g>
	<g>
		<path class="st1" d="M788.6,496.5c0,0,53.2,6.2,49.4,22.7c-4.2,18.1-6.5,27.7-24,23.5c-18.5-4.5-38.3-13.2-38.3-13.2l1.7-5.5
			c0,0,41.5,14.4,44.5,8.7c3.4-6.7,7-16.1,2.2-18.7c-4.8-2.6-41.3-12.2-41.3-12.2l1.7-5.4L788.6,496.5z"/>
		<path class="st1" d="M781.3,506.7c0,0,37.1,6.6,38.9,10.6c1.7,4.1-2.3,13.1-4.9,12.2c-2.5-1-33.3-6.1-36.9-9.3
			c0,0-0.3-3.3,1.6-3.9c1.5-0.5,20.3,5.2,28.6,5.8c1,0.1,1.7-2,0.7-2.4c-6.8-2.7-23.4-7.7-29.1-8.7
			C780.3,511,780.3,508.9,781.3,506.7z"/>
	</g>
	<g>
		<path class="st1" d="M779.7,534.5c0,0,51.9,13.3,45.9,29.1c-6.5,17.3-10.2,26.6-26.9,20.1c-17.8-6.9-36.2-18.1-36.2-18.1l2.4-5.2
			c0,0,39.3,19.8,43,14.5c4.3-6.2,9.1-15.1,4.7-18.3c-4.4-3.2-39.3-17.6-39.3-17.6l2.4-5.1L779.7,534.5z"/>
		<path class="st1" d="M771,543.7c0,0,35.9,11.4,37.1,15.7c1.2,4.3-4.1,12.7-6.4,11.4c-2.4-1.3-32.2-10.5-35.3-14.1
			c0,0,0.1-3.3,2.1-3.7c1.6-0.3,19.4,7.9,27.6,9.5c1,0.2,2-1.8,1.1-2.3c-6.3-3.6-22.2-10.8-27.6-12.5
			C769.6,547.7,769.8,545.7,771,543.7z"/>
	</g>
	<g>
		<path class="st1" d="M765.8,570.9c0,0,49.6,20.1,41.6,35c-8.8,16.3-13.6,25-29.4,16.3c-16.7-9.2-33.5-22.8-33.5-22.8l3.1-4.9
			c0,0,36.3,24.9,40.6,20.1c5.1-5.5,11.1-13.7,7.1-17.5c-4-3.8-36.6-22.7-36.6-22.7l3-4.8L765.8,570.9z"/>
		<path class="st1" d="M756,578.9c0,0,34.1,16.1,34.7,20.5c0.6,4.4-5.7,12-7.9,10.4c-2.2-1.6-30.5-14.7-33.1-18.7
			c0,0,0.5-3.3,2.6-3.4c1.6-0.1,18.2,10.4,26.1,13.1c1,0.3,2.2-1.5,1.4-2.2c-5.8-4.4-20.6-13.6-25.7-16.1
			C754,582.7,754.5,580.7,756,578.9z"/>
	</g>
	<g>
		<path class="st1" d="M747.1,605.2c0,0,46.5,26.5,36.6,40.2c-10.9,15-16.8,23-31.3,12.2c-15.3-11.4-30.1-27.1-30.1-27.1l3.7-4.4
			c0,0,32.6,29.5,37.6,25.4c5.8-4.8,12.8-12.1,9.4-16.4c-3.4-4.3-33.3-27.4-33.3-27.4l3.6-4.3L747.1,605.2z"/>
		<path class="st1" d="M736.4,611.8c0,0,31.7,20.5,31.7,25c0,4.4-7.3,11.2-9.2,9.3c-1.9-1.9-28.3-18.6-30.3-22.9c0,0,1-3.2,3-3
			c1.6,0.1,16.7,12.7,24.1,16.4c0.9,0.5,2.4-1.2,1.6-1.9c-5.2-5.2-18.6-16.2-23.4-19.3C733.9,615.3,734.7,613.4,736.4,611.8z"/>
	</g>
	<g>
		<path class="st1" d="M724.1,636.7c0,0,42.6,32.4,30.9,44.7c-12.8,13.4-19.7,20.5-32.6,8c-13.7-13.3-26.3-30.8-26.3-30.8l4.3-3.9
			c0,0,28.4,33.6,33.9,30.1c6.4-4,14.3-10.3,11.5-15s-29.3-31.6-29.3-31.6l4.2-3.8L724.1,636.7z"/>
		<path class="st1" d="M712.6,641.8c0,0,28.6,24.5,28.1,28.9c-0.6,4.4-8.7,10.1-10.4,8c-1.7-2.1-25.5-22.2-27-26.7
			c0,0,1.4-3,3.4-2.6c1.6,0.3,14.8,14.8,21.7,19.5c0.9,0.6,2.5-0.9,1.9-1.7c-4.4-5.8-16.2-18.6-20.6-22.3
			C709.6,645,710.7,643.2,712.6,641.8z"/>
	</g>
	<g>
		<path class="st1" d="M697.1,664.9c0,0,37.9,37.8,24.7,48.4c-14.4,11.6-22.3,17.7-33.4,3.6c-11.8-15-21.9-34-21.9-34l4.7-3.3
			c0,0,23.7,37.1,29.6,34.4c6.8-3.1,15.5-8.3,13.4-13.3c-2.2-5-24.9-35.2-24.9-35.2l4.6-3.2L697.1,664.9z"/>
		<path class="st1" d="M685,668.4c0,0,25.1,28.1,24,32.4c-1.2,4.3-10,8.8-11.3,6.5c-1.4-2.3-22.3-25.4-23.2-30.1
			c0,0,1.8-2.8,3.7-2.1c1.5,0.6,12.7,16.7,18.9,22.2c0.8,0.7,2.6-0.5,2.1-1.4c-3.6-6.3-13.6-20.6-17.4-24.8
			C681.6,671.1,682.9,669.5,685,668.4z"/>
	</g>
	<g>
		<path class="st1" d="M666.6,689.2c0,0,32.5,42.5,18,51.3c-15.9,9.6-24.5,14.6-33.6-0.9c-9.7-16.4-17.2-36.7-17.2-36.7l5.1-2.6
			c0,0,18.5,39.9,24.7,38c7.2-2.2,16.5-6.2,15-11.4c-1.5-5.3-19.9-38.2-19.9-38.2l5-2.6L666.6,689.2z"/>
		<path class="st1" d="M654.1,691c0,0,21.2,31.2,19.4,35.3c-1.7,4.1-11,7.4-12.1,5c-1.1-2.5-18.8-28.1-19-32.9c0,0,2.1-2.5,4-1.6
			c1.4,0.7,10.4,18.2,15.8,24.5c0.7,0.8,2.7-0.2,2.3-1.2c-2.7-6.8-10.8-22.2-14-26.9C650.4,693.3,651.9,691.9,654.1,691z"/>
	</g>
	<g>
		<path class="st1" d="M633.1,709.2c0,0,26.6,46.5,11.1,53.2c-17,7.4-26.2,11.2-33.1-5.4c-7.4-17.6-12.2-38.6-12.2-38.6l5.4-1.9
			c0,0,13.1,42,19.5,41c7.4-1.2,17.2-3.9,16.4-9.3c-0.8-5.4-14.7-40.5-14.7-40.5l5.3-1.9L633.1,709.2z"/>
		<path class="st1" d="M620.4,709.4c0,0,16.8,33.8,14.6,37.6c-2.3,3.8-11.9,5.9-12.7,3.3c-0.7-2.6-14.9-30.4-14.5-35.2
			c0,0,2.4-2.2,4.1-1c1.3,0.9,7.9,19.4,12.4,26.4c0.6,0.9,2.7,0.2,2.4-0.8c-1.8-7.1-7.7-23.4-10.3-28.5
			C616.5,711.2,618.2,709.9,620.4,709.4z"/>
	</g>
	<g>
		<path class="st1" d="M597.2,724.6c0,0,20.2,49.6,3.9,54.2c-17.8,5.1-27.4,7.6-32.1-9.7c-5-18.4-6.9-39.9-6.9-39.9l5.6-1.2
			c0,0,7.4,43.4,13.8,43.2c7.5-0.2,17.5-1.6,17.5-7.1s-9.2-42.1-9.2-42.1l5.5-1.1L597.2,724.6z"/>
		<path class="st1" d="M584.7,723.1c0,0,12.2,35.7,9.4,39.2c-2.7,3.5-12.6,4.3-13,1.6c-0.4-2.7-10.7-32.1-9.6-36.8
			c0,0,2.7-1.9,4.2-0.5c1.2,1.1,5.2,20.3,8.7,27.8c0.4,0.9,2.6,0.5,2.5-0.5c-0.9-7.2-4.5-24.3-6.4-29.7
			C580.6,724.3,582.3,723.3,584.7,723.1z"/>
	</g>
	<g>
		<path class="st1" d="M559.6,735.1c0,0,13.4,51.8-3.4,54.3c-18.3,2.6-28.2,3.9-30.6-13.9c-2.5-18.9-1.5-40.5-1.5-40.5l5.7-0.4
			c0,0,1.5,44,8,44.6c7.5,0.8,17.6,0.7,18.3-4.7c0.7-5.4-3.5-42.9-3.5-42.9l5.6-0.4L559.6,735.1z"/>
		<path class="st1" d="M547.4,731.9c0,0,7.3,37,4.1,40.1c-3.2,3.1-13.1,2.5-13.1-0.1c0-2.7-6.3-33.2-4.7-37.7c0,0,2.9-1.5,4.3,0.1
			c1,1.2,2.5,20.8,5,28.8c0.3,1,2.5,0.9,2.5-0.2c0.1-7.3-1.3-24.6-2.4-30.2C543.1,732.6,545.1,731.8,547.4,731.9z"/>
	</g>
	<g>
		<path class="st1" d="M521,740.5c0,0,6.4,53.2-10.6,53.3c-18.5,0.2-28.5,0.1-28.4-17.9c0-19.1,3.9-40.3,3.9-40.3l5.8,0.4
			c0,0-4.3,43.8,1.9,45.3c7.3,1.8,17.3,3.1,18.8-2.2c1.4-5.3,2.3-43,2.3-43l5.6,0.3L521,740.5z"/>
		<path class="st1" d="M509.3,735.7c0,0,2.3,37.7-1.3,40.3c-3.6,2.6-13.3,0.8-13-1.9c0.3-2.7-1.8-33.8,0.4-38c0,0,3.1-1.1,4.2,0.7
			c0.9,1.4-0.3,21,1.1,29.2c0.2,1,2.4,1.2,2.5,0.2c1.1-7.2,2-24.6,1.7-30.3C505,735.8,507,735.3,509.3,735.7z"/>
	</g>
	<g>
		<path class="st1" d="M482,740.7c0,0-0.8,53.5-17.6,51.4c-18.4-2.3-28.2-3.7-25.8-21.5c2.6-18.9,9.2-39.4,9.2-39.4l5.7,1.1
			c0,0-10.1,42.8-4.1,45.2c7,2.7,16.8,5.4,18.9,0.3c2.1-5,8-42.3,8-42.3l5.5,1.1L482,740.7z"/>
		<path class="st1" d="M471,734.4c0,0-2.7,37.6-6.6,39.8c-3.9,2.1-13.3-1-12.6-3.6c0.7-2.6,2.7-33.7,5.5-37.6c0,0,3.2-0.7,4.1,1.2
			c0.7,1.5-3.1,20.7-2.8,29c0,1,2.2,1.5,2.5,0.5c2-7,5.3-24.1,5.7-29.8C466.7,733.9,468.8,733.7,471,734.4z"/>
	</g>
	<g>
		<path class="st1" d="M443.3,735.7c0,0-7.9,53-24.3,48.6c-17.9-4.7-27.5-7.4-22.7-24.7c5.1-18.4,14.3-37.9,14.3-37.9l5.5,1.9
			c0,0-15.7,41.1-10.1,44.2c6.6,3.6,15.9,7.5,18.7,2.8c2.7-4.7,13.5-40.9,13.5-40.9l5.3,1.8L443.3,735.7z"/>
		<path class="st1" d="M433.2,728c0,0-7.7,36.9-11.8,38.5c-4.1,1.6-13-2.8-12-5.2c1-2.5,7.1-33.1,10.4-36.6c0,0,3.3-0.2,3.9,1.8
			c0.5,1.5-5.8,20.1-6.6,28.4c-0.1,1,2,1.8,2.4,0.8c3-6.7,8.4-23.2,9.6-28.8C429,727,431.1,727,433.2,728z"/>
	</g>
	<g>
		<path class="st1" d="M405.6,725.6c0,0-14.9,51.4-30.5,45c-17.1-7.1-26.3-11-19.2-27.5c7.5-17.5,19.3-35.6,19.3-35.6l5.2,2.6
			c0,0-21.1,38.6-15.9,42.5c6,4.5,14.8,9.6,18.1,5.3c3.4-4.3,18.8-38.7,18.8-38.7l5,2.5L405.6,725.6z"/>
		<path class="st1" d="M396.6,716.6c0,0-12.5,35.6-16.9,36.6c-4.3,1-12.6-4.5-11.2-6.8c1.4-2.3,11.5-31.8,15.2-34.9
			c0,0,3.3,0.2,3.6,2.3c0.3,1.6-8.5,19.2-10.4,27.3c-0.2,1,1.7,2,2.3,1.1c3.8-6.2,11.5-21.9,13.3-27.2
			C392.6,715,394.7,715.4,396.6,716.6z"/>
	</g>
	<g>
		<path class="st1" d="M369.5,710.5c0,0-21.6,49-36.2,40.5c-16-9.3-24.6-14.4-15.4-29.9c9.7-16.4,23.8-32.7,23.8-32.7l4.8,3.2
			c0,0-26,35.5-21.4,40c5.4,5.3,13.4,11.5,17.3,7.6c3.9-3.8,23.8-35.9,23.8-35.9l4.7,3.2L369.5,710.5z"/>
		<path class="st1" d="M361.9,700.5c0,0-17.2,33.6-21.6,34c-4.4,0.5-11.8-6.1-10.2-8.2c1.7-2.1,15.6-30,19.7-32.5
			c0,0,3.2,0.6,3.3,2.7c0,1.6-10.9,17.9-13.9,25.7c-0.4,1,1.4,2.2,2.1,1.4c4.6-5.7,14.3-20.1,16.8-25.2
			C358.1,698.4,360.1,699,361.9,700.5z"/>
	</g>
	<g>
		<path class="st1" d="M335.9,690.8c0,0-27.9,45.7-41.3,35.3c-14.7-11.3-22.4-17.5-11.3-31.6c11.8-14.9,28-29.3,28-29.3l4.3,3.8
			c0,0-30.5,31.7-26.5,36.8c4.6,5.9,11.7,13.2,16.1,9.9c4.4-3.3,28.4-32.4,28.4-32.4l4.2,3.8L335.9,690.8z"/>
		<path class="st1" d="M329.6,679.9c0,0-21.5,31-25.9,30.9c-4.4-0.1-10.9-7.6-9-9.5c1.9-1.9,19.5-27.7,23.8-29.6
			c0,0,3.1,1.1,2.9,3.1c-0.2,1.6-13.2,16.3-17.2,23.6c-0.5,0.9,1.1,2.4,1.9,1.7c5.3-5,16.8-18.1,20.1-22.8
			C326.2,677.3,328.1,678.1,329.6,679.9z"/>
	</g>
	<g>
		<path class="st1" d="M305.1,666.8c0,0-33.7,41.6-45.6,29.5c-13-13.2-19.9-20.4-6.9-32.9c13.7-13.2,31.6-25.3,31.6-25.3l3.7,4.4
			c0,0-34.4,27.4-31.2,32.9c3.8,6.5,9.9,14.6,14.6,11.9c4.8-2.7,32.5-28.3,32.5-28.3l3.7,4.3L305.1,666.8z"/>
		<path class="st1" d="M300.4,655.1c0,0-25.4,27.9-29.8,27.1c-4.4-0.7-9.8-9-7.7-10.6c2.2-1.6,23-24.8,27.6-26.2c0,0,3,1.5,2.5,3.5
			c-0.4,1.6-15.3,14.4-20.2,21.1c-0.6,0.8,0.8,2.5,1.7,1.9c5.9-4.2,19.1-15.7,22.9-19.9C297.3,652.1,299.1,653.2,300.4,655.1z"/>
	</g>
	<g>
		<path class="st1" d="M277.8,639c0,0-39,36.7-49.2,23.2c-11.1-14.8-17-22.8-2.5-33.5c15.4-11.3,34.7-20.9,34.7-20.9l3.1,4.8
			c0,0-37.8,22.5-35.3,28.5c2.9,6.9,7.8,15.8,12.9,13.8c5.1-2,35.9-23.7,35.9-23.7l3.1,4.7L277.8,639z"/>
		<path class="st1" d="M274.7,626.7c0,0-28.9,24.2-33.2,22.9c-4.2-1.3-8.5-10.2-6.2-11.5c2.3-1.3,26.1-21.5,30.8-22.3
			c0,0,2.7,1.8,2,3.8c-0.6,1.5-17,12.2-22.8,18.2c-0.7,0.8,0.5,2.6,1.4,2.1c6.4-3.4,21-13,25.3-16.7
			C272,623.3,273.6,624.6,274.7,626.7z"/>
	</g>
	<g>
		<path class="st1" d="M254.4,607.7c0,0-43.5,31.2-51.8,16.4c-9.1-16.1-13.8-24.9,2-33.5c16.7-9.1,37.2-16.1,37.2-16.1l2.5,5.2
			c0,0-40.4,17.3-38.8,23.5c2,7.3,5.7,16.7,11,15.4c5.3-1.3,38.8-18.8,38.8-18.8l2.4,5.1L254.4,607.7z"/>
		<path class="st1" d="M253,595.2c0,0-31.9,20.2-35.9,18.3c-4-1.9-7.1-11.3-4.6-12.3c2.5-1,28.7-17.9,33.5-18c0,0,2.5,2.2,1.4,4
			c-0.8,1.4-18.5,9.8-25,15c-0.8,0.7,0.1,2.7,1.1,2.3c6.8-2.5,22.5-10.1,27.3-13.1C250.8,591.4,252.2,592.9,253,595.2z"/>
	</g>
	<g>
		<path class="st1" d="M235.5,573.6c0,0-47.3,25.1-53.5,9.4c-6.8-17.2-10.4-26.5,6.4-33c17.8-6.8,39-11,39-11l1.7,5.5
			c0,0-42.4,11.8-41.5,18.2c1,7.5,3.4,17.3,8.8,16.7c5.4-0.6,40.9-13.4,40.9-13.4l1.7,5.4L235.5,573.6z"/>
		<path class="st1" d="M235.7,561c0,0-34.3,15.8-38,13.4s-5.5-12.1-2.9-12.8s30.8-13.9,35.6-13.4c0,0,2.2,2.5,0.9,4.2
			c-1,1.3-19.7,7.3-26.8,11.5c-0.9,0.5-0.2,2.7,0.8,2.4c7.1-1.6,23.7-7,28.8-9.4C234,557,235.2,558.7,235.7,561z"/>
	</g>
	<g>
		<path class="st1" d="M221.2,537.3c0,0-50.2,18.6-54.3,2.2c-4.5-18-6.8-27.7,10.7-31.8c18.5-4.4,40.1-5.7,40.1-5.7l1,5.7
			c0,0-43.6,6-43.6,12.5c0,7.5,1.1,17.6,6.5,17.7c5.5,0.1,42.3-7.9,42.3-7.9l1,5.5L221.2,537.3z"/>
		<path class="st1" d="M223.1,524.8c0,0-36.1,11-39.5,8.2c-3.4-2.8-3.9-12.7-1.2-13c2.7-0.3,32.4-9.7,37.1-8.5c0,0,1.8,2.8,0.3,4.2
			c-1.1,1.2-20.5,4.6-28.1,7.9c-1,0.4-0.6,2.6,0.4,2.5c7.3-0.6,24.4-3.8,29.8-5.5C222,520.6,222.9,522.5,223.1,524.8z"/>
	</g>
	<g>
		<path class="st1" d="M211.9,499.4c0,0-52.2,11.8-54.1-5.1c-2.1-18.4-3-28.3,14.9-30.1c19-1.9,40.5-0.3,40.5-0.3l0.2,5.8
			c0,0-44,0.2-44.9,6.6c-1,7.4-1.3,17.6,4.1,18.4c5.4,0.9,43-2.2,43-2.2l0.2,5.6L211.9,499.4z"/>
		<path class="st1" d="M215.4,487.3c0,0-37.2,6.1-40.2,2.9c-3-3.3-2.1-13.1,0.5-13.1c2.7,0.1,33.4-5.3,37.9-3.5c0,0,1.4,3-0.2,4.3
			c-1.3,1-20.9,1.8-28.9,4.1c-1,0.3-0.9,2.5,0.1,2.5c7.3,0.3,24.7-0.5,30.3-1.4C214.9,483,215.6,484.9,215.4,487.3z"/>
	</g>
	<g>
		<path class="st1" d="M207.7,460.6c0,0-53.3,4.7-53-12.2c0.4-18.5,0.8-28.5,18.8-27.9c19,0.6,40.2,5.1,40.2,5.1l-0.5,5.7
			c0,0-43.6-5.7-45.3,0.5c-2,7.2-3.6,17.2,1.6,18.8c5.2,1.6,42.9,3.6,42.9,3.6l-0.5,5.6L207.7,460.6z"/>
		<path class="st1" d="M212.8,449c0,0-37.7,1.1-40.2-2.5c-2.5-3.6-0.4-13.3,2.3-12.9c2.7,0.4,33.8-0.8,38,1.6c0,0,1,3.1-0.8,4.2
			c-1.4,0.8-20.9-1-29.2,0.2c-1,0.1-1.3,2.3-0.2,2.5c7.2,1.3,24.5,2.8,30.2,2.6C212.9,444.7,213.3,446.8,212.8,449z"/>
	</g>
	<g>
		<path class="st1" d="M208.7,421.6c0,0-53.5-2.4-50.9-19.2c2.9-18.3,4.6-28.1,22.3-25.1c18.8,3.2,39.1,10.4,39.1,10.4l-1.3,5.6
			c0,0-42.5-11.4-45-5.5c-3,6.9-5.9,16.6-0.9,18.9c5,2.2,42.1,9.3,42.1,9.3l-1.3,5.5L208.7,421.6z"/>
		<path class="st1" d="M215.3,410.8c0,0-37.5-3.9-39.5-7.8c-2-4,1.4-13.2,4-12.5c2.6,0.8,33.6,3.7,37.4,6.6c0,0,0.6,3.3-1.3,4
			c-1.5,0.6-20.6-3.8-28.9-3.7c-1,0-1.6,2.2-0.6,2.5c6.9,2.3,23.9,6,29.6,6.6C215.9,406.6,216.1,408.6,215.3,410.8z"/>
	</g>
	<g>
		<path class="st1" d="M214.9,383c0,0-52.7-9.5-47.9-25.8c5.3-17.8,8.3-27.2,25.4-21.9c18.2,5.6,37.4,15.5,37.4,15.5l-2,5.4
			c0,0-40.6-17-43.9-11.4c-3.8,6.5-8,15.7-3.4,18.6c4.6,2.9,40.5,14.8,40.5,14.8l-2,5.3L214.9,383z"/>
		<path class="st1" d="M222.9,373.3c0,0-36.7-8.8-38.1-13c-1.5-4.2,3.2-12.9,5.6-11.8s32.8,8.2,36.2,11.5c0,0,0.1,3.3-1.9,3.8
			c-1.6,0.4-19.9-6.5-28.2-7.5c-1-0.1-1.8,1.9-0.9,2.4c6.6,3.2,22.9,9.2,28.5,10.5C224.1,369.1,224,371.2,222.9,373.3z"/>
	</g>
	<g>
		<path class="st1" d="M226.2,345.7c0,0-51-16.5-44-31.9c7.6-16.9,11.8-25.9,28.1-18.3c17.3,8,35,20.4,35,20.4l-2.7,5.1
			c0,0-37.9-22.2-42-17.2c-4.7,5.9-10.1,14.5-5.8,18c4.2,3.5,38.1,20,38.1,20l-2.7,5L226.2,345.7z"/>
		<path class="st1" d="M235.4,337c0,0-35.2-13.6-36.1-18c-0.9-4.3,4.8-12.4,7.1-11c2.3,1.4,31.4,12.5,34.4,16.3c0,0-0.3,3.3-2.4,3.5
			c-1.6,0.2-18.9-9.1-26.9-11.2c-1-0.3-2.1,1.7-1.2,2.2c6.1,4,21.5,12.1,26.8,14.2C237.1,333.1,236.7,335.1,235.4,337z"/>
	</g>
	<g>
		<path class="st1" d="M242.3,310.2c0,0-48.3-23.1-39.4-37.5c9.8-15.7,15.2-24.1,30.3-14.4c16.1,10.2,32,24.8,32,24.8l-3.4,4.7
			c0,0-34.6-27.1-39.3-22.6c-5.4,5.2-11.9,13-8.2,17c3.7,4,35.1,24.9,35.1,24.9l-3.3,4.6L242.3,310.2z"/>
		<path class="st1" d="M252.6,302.8c0,0-33-18.2-33.4-22.6c-0.3-4.4,6.5-11.7,8.5-9.9c2.1,1.7,29.5,16.5,31.9,20.7
			c0,0-0.7,3.2-2.8,3.2c-1.6,0-17.5-11.5-25.2-14.7c-1-0.4-2.3,1.4-1.5,2.1c5.5,4.8,19.7,14.9,24.7,17.6
			C254.8,299.1,254.2,301.1,252.6,302.8z"/>
	</g>
	<g>
		<path class="st1" d="M263.1,277.1c0,0-44.8-29.3-34-42.4c11.8-14.3,18.2-21.9,32-10.3c14.6,12.3,28.4,28.9,28.4,28.9l-4,4.2
			c0,0-30.7-31.5-35.9-27.6c-6.1,4.4-13.5,11.3-10.4,15.8c3.1,4.5,31.5,29.4,31.5,29.4l-3.9,4.1L263.1,277.1z"/>
		<path class="st1" d="M274.2,271.2c0,0-30.3-22.4-30.1-26.9c0.3-4.4,8-10.7,9.8-8.7c1.8,2,27,20.3,28.9,24.8c0,0-1.2,3.1-3.2,2.8
			c-1.6-0.2-15.8-13.7-23-17.9c-0.9-0.5-2.4,1.1-1.8,1.8c4.8,5.5,17.5,17.4,22.1,20.7C276.9,267.8,276,269.7,274.2,271.2z"/>
	</g>
	<g>
		<path class="st1" d="M288,247.1c0,0-40.5-35-28.1-46.5c13.6-12.6,21-19.3,33.1-5.9c12.8,14.1,24.3,32.4,24.3,32.4l-4.5,3.6
			c0,0-26.3-35.3-31.9-32.2c-6.6,3.6-14.9,9.4-12.4,14.3c2.5,4.9,27.3,33.3,27.3,33.3l-4.4,3.5L288,247.1z"/>
		<path class="st1" d="M299.8,242.7c0,0-27.1-26.3-26.2-30.6c0.9-4.4,9.3-9.5,10.8-7.3c1.5,2.2,24.1,23.7,25.3,28.4
			c0,0-1.6,2.9-3.6,2.3c-1.6-0.4-13.9-15.7-20.4-20.8c-0.8-0.6-2.6,0.7-2,1.6c4.1,6.1,15.1,19.5,19.2,23.5
			C303,239.8,301.8,241.5,299.8,242.7z"/>
	</g>
	<g>
		<path class="st1" d="M316.7,220.7c0,0-35.5-40.1-21.6-49.9c15.1-10.7,23.4-16.3,33.6-1.5c10.8,15.7,19.8,35.3,19.8,35.3l-4.9,3
			c0,0-21.3-38.5-27.4-36.1c-7,2.7-16,7.3-14.2,12.5c1.9,5.1,22.6,36.7,22.6,36.7l-4.8,2.9L316.7,220.7z"/>
		<path class="st1" d="M329,217.9c0,0-23.3-29.6-21.9-33.8c1.4-4.2,10.5-8.2,11.7-5.8c1.2,2.4,20.7,26.7,21.3,31.5
			c0,0-1.9,2.7-3.8,1.8c-1.5-0.6-11.7-17.4-17.5-23.4c-0.7-0.7-2.6,0.4-2.2,1.3c3.2,6.6,12.3,21.4,15.9,25.9
			C332.5,215.4,331.2,216.9,329,217.9z"/>
	</g>
	<g>
		<path class="st1" d="M348.7,198.3c0,0-29.8-44.5-14.8-52.3c16.4-8.6,25.3-13,33.4,3c8.6,17,14.9,37.7,14.9,37.7l-5.3,2.3
			c0,0-16-41-22.3-39.5c-7.3,1.7-16.9,5.1-15.7,10.5c1.2,5.3,17.5,39.3,17.5,39.3l-5.2,2.2L348.7,198.3z"/>
		<path class="st1" d="M361.3,197.2c0,0-19.2-32.5-17.2-36.5c2-4,11.5-6.7,12.4-4.2c0.9,2.5,17,29.2,16.9,34c0,0-2.3,2.4-4.1,1.3
			c-1.4-0.8-9.2-18.8-14.2-25.5c-0.6-0.8-2.7,0-2.3,1c2.3,6.9,9.4,22.8,12.3,27.7C365.1,195.2,363.5,196.5,361.3,197.2z"/>
	</g>
	<g>
		<path class="st1" d="M383.4,180.4c0,0-23.6-48-7.7-53.8c17.4-6.3,26.8-9.6,32.8,7.4c6.3,18,9.7,39.3,9.7,39.3l-5.5,1.6
			c0,0-10.4-42.7-16.9-42.1c-7.5,0.7-17.4,2.9-17,8.3c0.4,5.4,12.1,41.3,12.1,41.3l-5.4,1.5L383.4,180.4z"/>
		<path class="st1" d="M396,181c0,0-14.7-34.7-12.2-38.4c2.5-3.7,12.3-5.2,12.8-2.5c0.6,2.6,12.9,31.2,12.2,36c0,0-2.6,2.1-4.2,0.8
			c-1.3-1-6.7-19.9-10.7-27.1c-0.5-0.9-2.6-0.3-2.4,0.7c1.4,7.2,6.2,23.9,8.5,29.1C400,179.5,398.3,180.6,396,181z"/>
	</g>
	<g>
		<path class="st1" d="M420.1,167.3c0,0-17-50.8-0.5-54.4c18.1-3.9,27.9-5.9,31.5,11.7c3.8,18.7,4.4,40.3,4.4,40.3l-5.7,0.8
			c0,0-4.7-43.7-11.1-44c-7.5-0.3-17.6,0.5-17.9,6c-0.3,5.5,6.5,42.6,6.5,42.6l-5.6,0.8L420.1,167.3z"/>
		<path class="st1" d="M432.5,169.5c0,0-9.9-36.4-7-39.7s12.9-3.5,13.1-0.8c0.2,2.7,8.7,32.7,7.3,37.3c0,0-2.8,1.7-4.3,0.2
			c-1.1-1.2-3.9-20.6-7-28.3c-0.4-1-2.6-0.7-2.5,0.4c0.4,7.3,3,24.5,4.5,30C436.7,168.6,434.9,169.5,432.5,169.5z"/>
	</g>
	<g>
		<path class="st1" d="M500,730.7c-154.6,0-280.4-126.5-280.4-282c0-155.5,125.8-282,280.4-282c154.6,0,280.4,126.5,280.4,282
			C780.4,604.2,654.6,730.7,500,730.7z M500,179.5c-147.5,0-267.6,120.8-267.6,269.2c0,148.4,120,269.2,267.6,269.2
			s267.6-120.8,267.6-269.2C767.6,300.3,647.5,179.5,500,179.5z"/>
	</g>
	<g>
		<path class="st1" d="M500,642.5c-105.1,0-190.6-86-190.6-191.7c0-105.7,85.5-191.7,190.6-191.7s190.6,86,190.6,191.7
			C690.6,556.5,605.1,642.5,500,642.5z M500,272c-98,0-177.7,80.2-177.7,178.8c0,98.6,79.7,178.8,177.7,178.8
			s177.7-80.2,177.7-178.8C677.7,352.2,598,272,500,272z"/>
	</g>
	<g>
		<path class="st1" d="M500,816.2c-201.5,0-365.5-164.9-365.5-367.6C134.5,246,298.5,81.1,500,81.1S865.5,246,865.5,448.7
			C865.5,651.4,701.5,816.2,500,816.2z M500,94.1c-194.3,0-352.4,159.1-352.4,354.6c0,195.5,158.1,354.6,352.4,354.6
			s352.4-159.1,352.4-354.6C852.4,253.2,694.3,94.1,500,94.1z"/>
	</g>
	<g>
		<path class="st1" d="M328.9,291.4l11.4,10c3.2,2.8,3.8,5.5,1.7,7.9l-7.3,8.2c-2,2.3-4.4,2.2-7.2-0.3l-17.6-15.4
			c-3.1-2.7-3.6-5.3-1.4-7.7l9.9-11.3l3.2,2.8l-6.8,7.8c-0.6,0.7-0.2,1.6,1.1,2.7l16.1,14.1c1.3,1.1,2.3,1.3,3,0.6l0.7-0.8
			c0.6-0.6,0.2-1.5-1-2.6l-9.7-8.6c-0.8-0.7-1.5-0.8-2-0.2l-0.8,0.9l-3.7-3.2l4.4-5C324.5,289.3,326.5,289.3,328.9,291.4z"/>
		<path class="st1" d="M359.7,283.5c2.9,3.2,3.2,5.8,0.8,8l-11.7,10.6c-2.2,2-4.6,1.7-7.1-1.1l-9.8-10.7c-2.8-3-3.2-5.5-1.2-7.3
			l1.5-1.4l-2.5-2.7c-0.4-0.5-0.9-0.4-1.5,0.1l-3.7,3.3l-2.9-3.2l6-5.4c1.8-1.6,3.4-1.5,5,0.2l6.4,7l-1.5,1.3
			c-0.7,0.7-0.5,1.6,0.6,2.8l8.7,9.5c1.2,1.3,2.2,1.5,3,0.8l3.9-3.5c0.9-0.8,0.7-1.8-0.4-3l-8.7-9.6c-1.1-1.2-2-1.5-2.7-0.8
			l-1.8,1.6l-6.4-7.1c-1.6-1.7-1.4-3.4,0.6-5.2l6-5.5l2.9,3.2l-3.5,3.2c-0.6,0.6-0.7,1.1-0.3,1.5l2.5,2.8l1.5-1.4
			c2-1.8,4.4-1.1,7.2,2L359.7,283.5z"/>
		<path class="st1" d="M335,266.8l-6.4-7.9l6-4.8l9.7,12c-1.7-1.3-3.2-1.9-4.3-1.9c-1.2,0-2.5,0.6-3.9,1.8L335,266.8z"/>
		<path class="st1" d="M359.1,248.4c1.4-1,2.8-1.5,4.3-1.4c1.5,0.1,2.7,0.8,3.7,2.2l13.9,19.5c2.3,3.3,2.3,5.8-0.2,7.6l-12.6,9
			c-2.7,2-5.4,1.2-7.9-2.4l-13.7-19.2c-0.7-0.9-1-1.9-0.9-3c0-0.4,0.2-1.6,0.7-3.4l2.8-12.1l7.6-5.4L354,252L359.1,248.4z
			 M354.2,257.2c-0.3,0.2-0.6,0.6-0.8,1.1c-0.2,0.5-0.1,0.9,0.1,1.3l13.6,19.1c0.3,0.4,0.7,0.5,1.3,0.5c0.6-0.1,1.1-0.2,1.5-0.5
			l3.7-2.7c1-0.7,1.2-1.6,0.5-2.6L361,254.8c-0.8-1.1-2-1-3.6,0.1L354.2,257.2z"/>
		<path class="st1" d="M372.6,240.1c1.9-1.1,3.7-0.4,5.2,2.2l12.9,21.9c1.8,3,1.5,5.1-0.7,6.5l-5.4,3.2l-2.2-3.7l0.7-0.4
			c0.8-0.5,0.9-1.3,0.2-2.4l-11.9-20.2c-0.4-0.7-1-0.9-1.7-0.5l-0.9,0.5l-2.2-3.7L372.6,240.1z"/>
		<path class="st1" d="M402.8,239.7l6.7,13.7c1.9,3.9,1.4,6.5-1.5,7.9l-9.9,4.8c-2.7,1.3-4.9,0.3-6.5-3.1l-10.3-21
			c-1.8-3.7-1.3-6.3,1.6-7.7l13.5-6.6l1.9,3.9l-9.3,4.6c-0.8,0.4-0.8,1.4-0.1,2.9l9.4,19.2c0.8,1.6,1.6,2.1,2.5,1.7l1-0.5
			c0.8-0.4,0.8-1.3,0.1-2.8l-5.7-11.6c-0.5-1-1.1-1.3-1.8-1l-1.1,0.5l-2.2-4.4l6-2.9C399.6,236,401.4,236.9,402.8,239.7z"/>
		<path class="st1" d="M426.6,253.7c-0.9,0.3-1.1,1-0.7,2l0.9,2.5c0.3,0.9,1,1.2,1.9,0.8l3.4-1.3l1.5,4L425,265
			c-2.6,1-4.3,0.3-5.2-2.1l-1.5-4c-0.4-1-0.2-1.7,0.4-2.3l-1.2,0.5c-2.9,1.1-5.1-0.4-6.6-4.4l-4.9-12.9c-0.5-1.3-0.5-2.5-0.2-3.8
			c0.4-1.2,1.2-2.1,2.4-2.5l6-2.3l-1.5-4c-0.3-0.8-1-1-2.2-0.5l-6.8,2.6l-1.5-4l11.2-4.3c1.4-0.5,2.4-0.7,3.1-0.4
			c0.7,0.2,1.4,1.1,1.9,2.4l3.8,10l-7.1,2.7c-1.1,0.4-1.5,1.1-1.1,2.1l4.7,12.3c0.4,1.2,1.4,1.4,3,0.8l6.4-2.4l1.5,4L426.6,253.7z"
			/>
		<path class="st1" d="M465.3,237.3l-5.5-23.3c-0.8-3.5-2.8-4.8-6-4.1l-4.3,1c-1.1,0.3-1.8,0.9-2.1,1.9c-0.5-0.8-1.1-1.2-1.7-1
			l-1.2,0.3c-0.9,0.2-1.3,0.9-1.4,2c-0.6-0.8-1.5-1.1-2.6-1l0.5-1.9l2.9-0.4l-0.3-2c-0.1-0.6,0.3-1,1.1-1.1l5.5-0.8
			c0.8-0.1,1.3,0.2,1.4,0.9l0.3,1.8l8.1-1.2l-0.4-3c-0.4-2.5-2.1-3.5-5.3-3.1l-14.6,2.1c-3.2,0.5-4.7,2-4.3,4.6l0.4,2.8l1.6-0.2
			l-0.6,2.3l-8.5,2c-1.2,0.3-2.2,1-2.8,2.2c-0.7,1.2-0.8,2.5-0.5,4l2.8,11.8c0.7,3,1.6,4.4,2.7,4.4l-1.9,7.2l1.5,6.3l1.9-5.4
			l0.4,1.7c0.4,1.9,2.1,2.4,4.9,1.8l9.5-2.2c3.1-0.7,4.2-3.2,3.2-7.4l-5-21.4c-0.3-1.3-0.2-2.1,0.4-2.2l0.5-0.1
			c0.4-0.1,0.7,0.4,1,1.5l3.9,16.4l3.6-0.8l-4-17c-0.2-0.9-0.1-1.5,0.5-1.6l0.3-0.1c0.6-0.1,1,0.3,1.2,1.3l5.3,22.6
			c0.3,1.2-0.2,2-1.4,2.2l-3.9,0.9l1,4.2l8.5-2C464.9,243.5,466.2,241.1,465.3,237.3z M431.9,221.3c-0.3-1.2,0.2-1.9,1.3-2.1
			l2.1-0.5l-2.1,8.1L431.9,221.3z M440.9,244.7l-1.4,0.3c-0.8,0.2-1.2-0.1-1.4-0.8l-0.6-2.5c-0.1-0.6-0.5-1.1-1.2-1.4
			c-0.7-0.3-1.4-0.4-2.3-0.2c-0.3,0.1-0.5,0.1-0.8,0.2l0.6-2.5l4.4-1l-1-4.3l-2.1,0.5l2.2-8.8l4.3,18.5
			C442,243.8,441.7,244.5,440.9,244.7z"/>
		<path class="st1" d="M492,235.1c0.3,4.3-1.1,6.6-4.3,6.8l-5.8,0.4c-1,0.1-1.9-0.6-2.6-2c-0.5,1.6-1.3,2.4-2.1,2.4l-6.5,0.5
			c-3,0.2-4.7-1.5-5-5.3l-2.4-29.5l8.1-0.7l2.3,29.2c0.1,1.1,0.4,1.7,1.1,1.7c0.6,0,0.9-0.8,0.7-2.4l-0.9-11.7l6.2-0.5l0.9,11.5
			c0.1,1.6,0.5,2.4,1.2,2.4c0.5,0,0.7-0.7,0.6-2l-1.1-13.1c-0.1-1.6-0.7-2.4-1.7-2.3l-5.8,0.5l-0.7-9.3c-0.2-2.7,1-4.2,3.6-4.4
			l11.4-0.9l0.3,4.3l-6.4,0.5c-0.8,0.1-1.2,0.4-1.2,1l0.3,3.7l3.9-0.3c2.6-0.2,4.1,1.8,4.5,6L492,235.1z"/>
		<path class="st1" d="M528.3,237.8c-0.4,4-2.1,5.9-5.1,5.6l-15.4-1.4c-3.4-0.3-4.8-2.6-4.4-6.9l0.9-10.1c0.1-1.4,0.6-2.5,1.5-3.5
			c0.9-0.9,2-1.4,3.2-1.2l2.8,0.3l0.4-4c0.1-0.8-0.5-1.3-1.7-1.4l-4.8-0.4l0.4-4.3l9.5,0.9c1.5,0.1,2.5,0.5,3,1
			c0.6,0.5,0.8,1.5,0.6,3l-1,10.3l-4.2-0.4c-1.1-0.1-1.6,0.2-1.7,1l-0.9,10c-0.1,1.1,0.6,1.8,2.2,1.9l4,0.4c1.6,0.1,2.4-0.5,2.6-1.8
			l2.4-25.9c0.1-1.3-0.8-2.1-2.7-2.2l-10.2-0.9c-2.6-0.2-3.8-1.3-3.6-3.3l0.5-5.4c0.1-0.8,0.5-1.4,1.2-2c0.7-0.6,1.7-0.8,2.8-0.7
			l20.9,1.9l-0.4,4.3l-14.4-1.3c-0.9-0.1-1.5-0.1-1.7,0c-0.2,0.1-0.4,0.4-0.4,1c0,0.5,0,0.8,0.2,1c0.2,0.2,0.8,0.3,1.8,0.4l8.8,0.8
			c1.8,0.2,3.2,0.8,4.2,1.8c1,1,1.4,2.4,1.3,4.1L528.3,237.8z"/>
		<path class="st1" d="M568.7,206.9l-7.4-2.2l-3,9.7l0.8,0.2l-8.7-2c-2.9-0.7-4.9,1-5.8,4.9l-5.1,22.3c-0.3,1.3-0.7,1.9-1.3,1.8
			l-0.5-0.1c-0.6-0.1-0.7-0.8-0.5-1.9l6.5-28.4l-7.8-1.8l-6.6,29c-0.8,3.5,0.1,5.6,2.7,6.2l7.6,1.7c2.6,0.6,4.4-0.9,5.2-4.5
			l5.2-22.9c0.3-1.2,0.7-1.8,1.2-1.6l4.2,1c0.3,0.1,0.4,0.7,0.1,1.7l-2.2,9.7l-1.2-0.3c-2.1-0.5-3.4,0.6-4,3.1l-3.4,15l8,1.8
			c1.3,0.3,2.5,0,3.5-0.8c0.9-0.7,1.6-1.8,1.9-3.2l5.6-24.6c0.1-0.6,0.2-1.2,0.2-1.7c0.1,0.7,0.2,1.6,0.1,2.6L568.7,206.9z
			 M550.7,243.4c-0.1,0.6-0.5,0.8-1,0.7l-1-0.2l2.3-10c0.2-0.8,0.6-1.1,1.4-0.9l0.7,0.2L550.7,243.4z"/>
		<path class="st1" d="M577.2,235.6l-3.9-1.4c-1-0.4-1.6-0.2-1.9,0.5l-4.7,12.8c-0.4,1.1,0.2,1.9,1.6,2.5l3.8,1.4
			c1.5,0.6,2.5,0.2,3-1.1l10.4-28.1c0.5-1.4-0.1-2.5-1.9-3.1l-13.3-4.9l1.5-4.1l18,6.6c1.6,0.6,2.8,1.5,3.5,2.8
			c0.7,1.3,0.8,2.7,0.2,4.3l-11,29.7c-1.4,3.8-3.5,5.1-6.4,4.1l-14.5-5.4c-3.2-1.2-4-3.8-2.5-7.9l4.8-12.9c0.5-1.3,1.3-2.3,2.4-3
			c1.1-0.7,2.3-0.8,3.5-0.4l2.6,1l1.4-3.7c0.3-0.8-0.1-1.4-1.3-1.8l-4.6-1.7l1.5-4.1l9,3.3c1.4,0.5,2.3,1.1,2.6,1.8
			c0.4,0.7,0.3,1.7-0.2,3.1L577.2,235.6z"/>
		<path class="st1" d="M606,265.4c-1.8,3.6-4.1,4.7-6.8,3.3l-13.8-7.1c-3-1.5-3.5-4.2-1.5-8.1l4.6-9c0.6-1.2,1.5-2.1,2.7-2.6
			c1.2-0.5,2.3-0.5,3.5,0.1l2.5,1.3l1.8-3.5c0.4-0.7,0-1.4-1.1-2l-4.3-2.2l2-3.8l8.5,4.4c1.3,0.7,2.1,1.4,2.4,2.1
			c0.3,0.7,0.1,1.7-0.5,3l-4.7,9.2l-3.7-1.9c-0.9-0.5-1.6-0.4-1.9,0.3l-4.6,8.9c-0.5,1-0.1,1.9,1.3,2.6l3.6,1.9
			c1.4,0.7,2.4,0.5,3.1-0.7l11.9-23.1c0.6-1.2,0.1-2.2-1.6-3.1l-9.1-4.7c-2.3-1.2-3-2.7-2.1-4.4l2.5-4.8c0.3-0.7,1-1.1,1.9-1.4
			c0.9-0.2,1.8-0.1,2.8,0.4l18.7,9.6l-2,3.8l-12.9-6.6c-0.8-0.4-1.4-0.6-1.6-0.6c-0.3,0-0.5,0.3-0.8,0.7c-0.2,0.4-0.3,0.8-0.1,1
			c0.1,0.2,0.6,0.6,1.5,1l7.9,4c1.6,0.8,2.6,1.9,3.2,3.2c0.6,1.3,0.5,2.8-0.3,4.2L606,265.4z"/>
		<path class="st1" d="M615.9,279.1c-0.8-0.5-1.5-0.3-2,0.6l-1.5,2.2c-0.5,0.8-0.4,1.5,0.4,2l3.1,2l-2.4,3.6l-7.7-5
			c-2.3-1.5-2.8-3.3-1.4-5.4l2.3-3.6c0.6-0.9,1.3-1.2,2.1-1l-1.1-0.7c-2.6-1.7-2.7-4.3-0.4-7.9l7.5-11.5c0.8-1.1,1.7-1.9,3-2.3
			c1.2-0.4,2.4-0.3,3.5,0.4l5.3,3.5l2.4-3.6c0.5-0.7,0.2-1.4-0.9-2.1l-6.1-4l2.4-3.6l10.1,6.6c1.2,0.8,2,1.6,2.2,2.3
			c0.2,0.7-0.1,1.7-0.9,2.9l-5.9,9l-6.3-4.1c-1-0.7-1.8-0.6-2.3,0.3l-7.2,11c-0.7,1-0.3,2,1.1,2.9l5.7,3.7l-2.4,3.6L615.9,279.1z"/>
		<path class="st1" d="M641,253.5l5.9,4.7c1.3,1,1.4,2.2,0.3,3.6l-15.5,19.4c-0.9,1.4-1,2.5-0.1,3.1c0.8,0.7,1.7,0.5,2.5-0.6
			l7.8-9.7c1-1.2,1.1-2.1,0.5-2.7l-0.7-0.6l5.6-7.1c1.7-2.1,3.3-2.5,4.9-1.2l5.8,4.7l-2.7,3.4l-2.3-1.8c-0.8-0.6-1.5-0.6-2.1,0.1
			l-2.1,2.6l1,0.8c1.7,1.3,1.7,3,0,5.1l-10.2,12.8c-1.1,1.3-2.3,2.1-3.6,2.5c-1.4,0.3-2.5,0.1-3.4-0.6l-2.7-2.2
			c-1.5-1.2-2.2-2.7-2.1-4.6c-0.9,0.6-1.8,0.9-2.8,0.6l-5.5-4.4c1.6-0.7,3-1.7,4.2-3.3l14.9-18.6c0.8-1,1-1.6,0.6-1.9l-0.8-0.7
			L641,253.5z"/>
		<path class="st1" d="M665,273.7c1.7,1.5,1.4,3.4-0.7,5.7l-17.4,18.6c-2.4,2.5-4.5,2.9-6.4,1.1l-4.6-4.3l3-3.2l0.6,0.6
			c0.7,0.6,1.5,0.5,2.3-0.5l16-17.1c0.6-0.6,0.6-1.2,0-1.7l-0.8-0.7l3-3.2L665,273.7z"/>
		<path class="st1" d="M674.4,296.9l-13.8,12.3c-1.1,1-1.4,1.8-0.8,2.4c0.4,0.4,1,0.3,1.9-0.5l17.1-15.2c0.6-0.5,0.4-1.3-0.5-2.3
			l-4.3-4.8c-0.8-0.9-1.5-1-2.1-0.4l-23,20.5c-1,0.9-0.9,2,0.4,3.5l10.3,11.6L656,327l-13.6-15.3c-1.2-1.3-1.8-2.7-1.8-4.1
			c-0.1-1.5,0.5-2.8,1.8-3.9l23.7-21.1c3-2.7,5.5-2.9,7.6-0.6l11.2,12.5c2.2,2.5,1.7,5.2-1.5,8.1l-17.5,15.6c-1,0.9-2.2,1.4-3.5,1.5
			c-1.3,0.1-2.4-0.4-3.2-1.3l-5.5-6.1c-1.7-1.9-1.3-4,1.4-6.4l15.3-13.6L674.4,296.9z"/>
		<path class="st1" d="M682.3,340.3c-3.6,2.5-6.3,2.3-8-0.3l-3.2-4.8c-0.6-0.8-0.4-1.9,0.5-3.2c-1.6,0.3-2.7,0.1-3.2-0.6l-3.7-5.4
			c-1.7-2.5-1-4.8,2.1-6.9l24.5-16.7l4.6,6.7l-24.1,16.5c-0.9,0.6-1.2,1.2-0.9,1.7c0.3,0.5,1.1,0.4,2.4-0.5l9.7-6.6l3.5,5.2
			l-9.5,6.5c-1.4,0.9-1.8,1.7-1.5,2.2c0.3,0.4,1,0.3,2-0.4l10.8-7.4c1.4-0.9,1.8-1.8,1.2-2.6l-3.3-4.8l7.7-5.3
			c2.3-1.6,4.1-1.3,5.6,0.9l6.5,9.4l-3.6,2.4l-3.6-5.3c-0.5-0.7-1-0.9-1.5-0.5l-3.1,2.1l2.2,3.2c1.5,2.2,0.5,4.5-3,6.9L682.3,340.3z
			"/>
	</g>
	<path class="st1" d="M349.3,467.1l1.8-0.1c0.8,0,1.4,0.5,1.5,1.3l1.1,8.4c0.1,0.8-0.5,1.6-1.3,1.7l-3,0.4c-0.9,0.1-1.7-0.6-1.7-1.5
		l0.1-8.7C347.8,467.7,348.5,467.1,349.3,467.1z"/>
	<path class="st1" d="M366.2,508.8c6.3-3.8,11.5-6.5,12.2-5c1.6,3.6-1.1,9.6,1.9,9.2c0,0,3.9-3.2,3.4-9.2c-0.5-6-6.7-10.6-11.9-6.8
		c-5.2,3.8-7.5,4.6-7.5,4.6s-10.3-37.4-8-48.9c0,0-3.9,4.6-3.4,11.6l-4.5-0.1c0,0-5.1-15.7-13-10.7c-7.9,5-5.2,14.6-5.2,14.6
		s2.1-10,7.5-5c0,0,7.5,13.9,2.5,16.6c-5,2.7-9.8,2.3-8.8,5.4c1.1,3,22.7-1.6,23.1,0.5c0.4,2.1,3.4,16.6,5.7,17.7
		c0,0-3.2,5.5-5.8,5.3c-2.5-0.3-11.4-4.6-8.8-7.9c2.5-3.4,7.5,3.6,9.8,1.9c0,0-0.9-6.3-6-8c-5.1-1.7-15.3-2.4-13.3,7.5
		c2,9.9,9.4,6,9.6,8.8c0.3,2.8-4.8,2.4-4.8,3.4c0,0.9-2.1,7.9,2.1,7.9c2.3,0,12.1-6.5,20.8-11.8c1.9,4.8,5.8,14.7,5.8,14.7
		s-3.8,1.5-3.9-0.3c-0.3-4.8-8.2-5.6-13.3-1.9c-5.1,3.8,0.1,14.9,0.1,14.9c0.4-17,13.7-7.5,11.4-6.6c-2.5,0.7-0.7,5.5,0.7,14.3
		c-6.4,8.4,4.2,17.8,10.9,20.5c-2.1,2.8,2.8,6.8,7.6,7.6c4.8,0.8,11.1-10.7,11.9-12.9c0.8-2.1,3.4-1.2,4.7-0.9
		c1.3,0.3,0.7,3.9,3.5,4c2.8,0.1,3.3-4.5,3.3-4.5C395.9,555.3,370.7,516,366.2,508.8z"/>
	<path class="st0" d="M381,541c0,0-12.9,1.4-9.8-11.3l1-1.5C372.1,528.3,381.6,540,381,541z"/>
	<path class="st0" d="M369.4,552.1c0,0,1.3-5.5,4.6-3.9c3.2,1.6,5.9,1.7,6.6,0.9c0.7-0.8,4.4-2.4,5.8-1.3c1.3,1.1,6.4,2.5,3.1,5.2
		c-3.4,2.7-5.2,3.8-5.2,4.6C384.2,558.4,375.3,561.3,369.4,552.1z"/>
	<path class="st1" d="M443.3,588.3c0,0-3.8-3-0.5-4.1c3.2-1.1,20.2,8,25.6,8.6l2.5-0.9c0,0-1.1-3.2-2.5-3.2c-1.4,0-4.8-8.8,0.5-9.3
		c5.4-0.5,8.9,7.3,8,14.7c-0.2,3.2,2.3,1.3,2.9,2.9c0.5,1.6-2.1,4.5-2.1,5.9c0,1.4,0.9,12-4.6,12.5c-5.5,0.5-5.7-0.9-5.7-0.9
		s5.5-14.5,2.9-15.5c-2.7-1.1-9.1-6.4-12.5-3.6c0.7,2.7,13.4,6,6.9,15.5c-6.6,9.5-15.1,5.1-12.2,1.1c2.9-4,5.9-2,5.9-4.6
		c0-2.5,1.3-6.3-1.6-6.3c-2.9,0-5,0.9-6,0.4c-1.1-0.5-5.2-5.6-7.4-3.1c-2.1,2.5-2.8,5.5-0.3,7.2c2.5,1.7,4.3,6.6,1.1,6.6
		c-3.2,0-13.4-6.4-10.3-14.5c3.1-8,16.3-3.2,17-4.6C451.3,591.8,443.3,588.3,443.3,588.3z"/>
	<path class="st1" d="M497.9,604.1h-16.2l-0.1,4.4l2.8,0.9l0.1,5.4h2.7l0.4,3.5l11.9,0.5c0,0,0.3-3.5-0.3-3.5
		c-0.5,0-7.1-0.3-7.1-0.3v-5.2h7.6L497.9,604.1z"/>
	<path class="st1" d="M545.6,587.6c-0.9-1.3-9.2,2.7-9.2,2.7l-4.6,1.3c0,0-0.5,1.2-2.5,2.1c-2,0.9-15.7,2.4-15.7,2.4l0.5,0.2
		l-32.1,0.5l-1.1,3.6l20.4,0.4l1.1,20.4h8l-0.5-20l2.7-0.4l7.5-0.2l0.2-1.4l-1-1.8c4.9-0.8,14.7,2.1,14.7,2.5
		c0,0.4-10.2,1.7-15.8,4.7c-5.6,2.9-1.2,10.6,4.2,11.3c5.4,0.7,8.3-4.7,7.9-5.8c-0.4-1.1-6-1.6-5.6-2.3c0.4-0.7,9-3.1,11.8-3.1
		c2.8,0,0.7,7.9,0.7,7.9s2.1,1.2,5.9-0.1c3.8-1.3-1.5-17.8-1.5-17.8l4.7-2.8C546.2,591.9,546.6,588.9,545.6,587.6z"/>
	<path class="st1" d="M529.8,590.5c0,0-4.4-6,0-7.5c4.4-1.5,5.2,2.4,5.2,2.4s-3.1,2.1-3.6,3.4C531,590.2,529.8,590.5,529.8,590.5z"
		/>
	<path class="st1" d="M577.1,575.3c0,0,63.4-57.9,64.5-113.6c0,0,13.4,11.3,27.7,7c0,0,1.3,7.3-0.2,8c-1.4,0.7-5.4,1.8-5.4,1.8
		s-4.3-0.7-6.4-0.7c-2.1,0-7.3-5.2-11.8-0.9c-4.5,4.3-2.1,7.9-2.1,7.9s7,2.1,10.7-2.5c0,0,3.2,6.8,0,8.4c-3.2,1.6-12.3-1.4-13,0.7
		c-0.7,2.1-0.4,4.1-0.4,4.1s19.1,3.2,18.6,7.5c-0.5,4.3-7.3,5.5-7.3,6.1c0,0.5-0.9,3.6-0.9,3.6s-5-8.2-5.5-8
		c-0.5,0.2-2.1,2.9-2.1,2.9s-5.9,10,14.1,11.1c0,0-15.9,14.1-21.1-0.5c1.8-11.3,5.5-13.6,2.3-13c-3.2,0.5-13,15.9-9.6,17.7
		s6.4-2.1,6.8-0.9c0.4,1.3-5.4,15,3,13c8.4-2,11.4-2.5,11.4-2.5s-2.1,9.6-8.9,9.6s-13.2,2.1-13.4-4.6c-0.2-6.8,1.8-10.7-1.4-10.2
		c-3.2,0.5-6.8,10.4-6.8,10.4s13.6,12.9,13.9,14.8c0.4,2-2.7,4.8-4.1,4.5c-1.4-0.4-11.8-12.7-13.9-12c-2.1,0.7-4.6,4.8-4.6,4.8
		s14.7,14.8,12.7,16.8c-2,2-5.9,10.4-6.8,10.5c-0.9,0.2-4.8-0.9-5.9,0c-1.1,0.9-7.7,10.7-10.5,10.9c-2.9,0.2-6.8-4.3-6.8-6.1
		c0-1.8-2.5,3.2-4.1,3.6c-1.6,0.4-1.2-5.4-0.8-7.5s2.8-5.9,0.3-6C586.5,571.6,580.7,577,577.1,575.3z"/>
	<path class="st0" d="M595.5,574.5c0,0,1.5-1.9,1.9-1.6c0.4,0.3,1.6-3.5,2.8-3.1c1.2,0.4,3.9,0.5,4,1.3c0.1,0.8-3.6,1.5-4.2,2.3
		c-0.5,0.8-1.9,1.9-2.9,1.9C596,575.3,595.5,574.5,595.5,574.5z"/>
	<path class="st0" d="M596.7,562.7c0,0,5.2-6.2,7.2-6.3c2-0.1,12.3,10.9,12.3,12.2c0,1.3-4.3,4.2-4.3,4.2s-0.7-7.2-2.4-8
		C607.8,563.9,597.1,564.7,596.7,562.7z"/>
	<g>
		<polygon class="st1" points="421.1,648.3 413.8,669.1 412.8,642.8 408.7,642.3 409.3,641.2 400.7,636.8 400.7,636.8 397,634.7 
			378.6,667.1 382.4,669.2 382.4,669.1 392.1,674.2 394.1,670.4 384.5,665.4 390.4,655 398.2,659 400.2,655.2 392.5,651.2 
			398.6,640.5 407.3,645 408.4,642.9 398.4,676.6 402.5,677.8 409,655.9 410,680.5 414.2,681.1 425.2,649.7 		"/>
		
			<rect x="407.9" y="665.5" transform="matrix(0.2492 -0.9685 0.9685 0.2492 -327.2528 913.2356)" class="st1" width="35" height="4.3"/>
		<polygon class="st1" points="260.3,426.1 272,426.6 272,435.4 276.3,435.4 276.3,426.7 288.6,427.2 288.6,437 292.9,437 
			292.9,427.4 292.9,427.4 293,423 256.2,421.7 256.1,425.4 256.1,425.4 256.1,437 260.3,437 		"/>
		<polygon class="st1" points="329.7,604.8 335.1,611.7 338.5,609 333.2,602.3 343.2,595 349.2,602.7 352.6,600 346.7,592.5 
			346.7,592.5 344.1,589 314,611 316.5,614.4 316.6,614.4 323.4,623 326.7,620.3 320.1,611.9 		"/>
		<polygon class="st1" points="301.4,559.4 313.2,554.4 317.4,563.5 321.3,561.8 316.9,552.2 315.5,548.8 281.1,563.2 282.8,567.1 
			297.4,561 301.1,569 305,567.2 		"/>
		<path class="st1" d="M280.1,364.7l25.1,11.5l1.8-3.9l-25.1-11.5c-1.4-0.6-2.5-1.8-3.1-3.1c-0.5-1.3-0.5-2.7,0-3.9
			c0.6-1.2,1.6-2.1,2.9-2.5c1.4-0.5,3-0.4,4.4,0.3l24.6,11.3l1.8-3.9L288,347.7c-2.4-1.1-5-1.3-7.5-0.5c-2.5,0.8-4.5,2.5-5.5,4.8
			c-1.1,2.3-1.1,4.9-0.1,7.3C275.9,361.7,277.7,363.6,280.1,364.7z"/>
		<polygon class="st1" points="299,391.5 277.2,383.5 303.8,380.9 304.2,376.8 271,366.6 269.7,370.7 292.7,377.7 267.5,380.2 
			267,384.3 297.5,395.6 		"/>
		
			<rect x="277.2" y="379.3" transform="matrix(0.2852 -0.9585 0.9585 0.2852 -180.0803 550.9863)" class="st1" width="4.3" height="33.8"/>
		
			<rect x="258.5" y="483.9" transform="matrix(0.989 -0.1478 0.1478 0.989 -68.7895 46.3801)" class="st1" width="38.3" height="4.3"/>
		<polygon class="st1" points="292.5,417.3 272.8,410.3 294.3,409.6 294.2,405.3 261.2,406.4 260.6,410.6 291.1,421.3 		"/>
		<path class="st1" d="M276.7,458.9h7.5c3.8,0,7-3.1,7-7v-3.8c0-1-0.2-2-0.6-2.8l-0.2-3.9l-35.7-1.7l-0.2,4.3l16.2,0.9
			c-0.5,1-0.9,2.1-0.9,3.3v3.8c0,0.1,0,0.2,0,0.2l-15.5,2.4l0.6,4.2l16.4-2.5C272.6,457.8,274.5,458.9,276.7,458.9z M274,448.1
			c0-1.5,1.2-2.7,2.7-2.7h5.5l2.7,0.1c1.1,0.3,2,1.3,2,2.5v3.8c0,1.5-1.2,2.7-2.7,2.7h-7.5c-1.5,0-2.7-1.2-2.7-2.7V448.1z"/>
		<path class="st1" d="M280.8,520.2c0.6,1.9,2.1,3.3,4.2,4c0.9,0.3,1.9,0.5,2.9,0.5c1.1,0,2.2-0.2,3.3-0.5l15.6-5.1l0.4-0.1l-1.4-4
			l-15.9,5.2c-1.2,0.4-2.5,0.4-3.5,0.1c-0.5-0.2-1.3-0.5-1.5-1.3l-1.2-3.6c-0.2-0.8,0.2-1.5,0.5-1.9c0.6-0.9,1.7-1.6,2.9-2l15.6-5.1
			l-1.3-4.1l-15.6,5.1c-2.1,0.7-3.9,1.9-5,3.6c-1.1,1.6-1.5,3.4-1.2,5.1l-11.6,3.5l1.3,4.1L280.8,520.2L280.8,520.2z"/>
		<polygon class="st1" points="274.9,478.5 276.8,476.5 277.5,466.2 289.3,466.4 290.2,475.2 294.5,474.8 293.4,464.1 291.3,462.2 
			275.5,461.9 273.3,463.9 272.6,474.4 261.6,475.4 260.7,466.2 256.4,466.6 257.5,477.9 259.8,479.8 		"/>
		<polygon class="st1" points="295,499.5 299.1,498 295.2,487 291.1,488.5 292.4,492.2 259.8,501 260.9,505.1 293.9,496.2 		"/>
		<path class="st1" d="M446.6,671.7l3.7-15.6l0.1-0.5l-4.2-0.8l-3.8,15.9c-0.4,1.7-1.3,2.8-2,3.2c-0.4,0.2-0.7,0.3-1,0.2l-3.3-0.9
			c-0.9-0.3-1.9-2.3-1.3-4.9l3.7-15.6l-4.2-1l-3.7,15.6c-1,4.3,0.6,8.4,3.7,9.7l-3.1,12.4l4.2,1l3.1-12.2c0.4,0.1,0.8,0.2,1.2,0.2
			c1,0,2-0.3,2.9-0.8C444.5,676.5,446,674.4,446.6,671.7z"/>
		<path class="st1" d="M288,554l16.7-5.8c2.3-0.8,4.2-2.5,5.3-4.7c1.1-2.2,1.2-4.7,0.4-7.1c-0.8-2.3-2.5-4.2-4.7-5.3
			c-2.2-1.1-4.7-1.2-7.1-0.4l-16.7,5.8c-2.3,0.8-4.2,2.5-5.3,4.7c-1.1,2.2-1.2,4.7-0.4,7.1s2.5,4.2,4.7,5.3c1.3,0.6,2.7,0.9,4,0.9
			C286,554.5,287,554.4,288,554z M282.8,549.7c-1.2-0.6-2.1-1.6-2.5-2.8c-0.4-1.3-0.4-2.6,0.2-3.8c0.6-1.2,1.6-2.1,2.8-2.5l16.7-5.8
			c0.5-0.2,1.1-0.3,1.6-0.3c0.7,0,1.5,0.2,2.2,0.5c1.2,0.6,2.1,1.6,2.5,2.8c0.4,1.3,0.4,2.6-0.2,3.8c-0.6,1.2-1.6,2.1-2.8,2.5
			l-16.7,5.8C285.4,550.4,284,550.3,282.8,549.7z"/>
		<path class="st1" d="M320.6,598.7c0.4,0.1,0.8,0.1,1.1,0.1c1.7,0,3.3-0.5,4.7-1.6l8.4-6.3c3.5-2.6,4.2-7.6,1.6-11.1
			c-2.6-3.5-7.6-4.2-11.1-1.6l-8.4,6.3c0,0-0.1,0.1-0.1,0.1L302,595.4l2.5,3.5l9.4-6.8c0.2,1.3,0.7,2.5,1.5,3.6
			C316.7,597.4,318.5,598.4,320.6,598.7z M318.1,590.4c0.1-0.9,0.6-1.7,1.3-2.3l9.6-6.9c0.3-0.1,0.7-0.2,1-0.2
			c1.1,0,2.2,0.5,2.9,1.4c1.2,1.6,0.9,3.9-0.7,5.1l-8.4,6.3c-0.8,0.6-1.7,0.8-2.7,0.7c-1-0.1-1.8-0.6-2.4-1.4h0
			C318.2,592.3,318,591.4,318.1,590.4z"/>
		<path class="st1" d="M351.3,626.1C351.3,626.1,351.3,626.1,351.3,626.1c1.9,0,3.6-0.7,4.9-2l5.3-5.3c1.3-1.3,2-3.1,2-4.9
			c0-1.9-0.7-3.6-2-4.9l-2.7-2.7c-0.6-0.6-1.2-1-1.8-1.3l0,0l-3.1-3.4l-26.9,24.4l2.9,3.2l12.1-10.8c0.3,1.1,0.9,2.1,1.7,3l2.7,2.7
			c0.1,0.1,0.1,0.1,0.2,0.1l-9.3,12.6l3.5,2.5l9.9-13.4C350.8,626.1,351.1,626.1,351.3,626.1z M346.8,614.6l3.9-3.9l2-1.8
			c0.4-0.2,0.8-0.4,1.3-0.4c0.7,0,1.4,0.3,1.9,0.8l2.7,2.7c0.5,0.5,0.8,1.2,0.8,1.9c0,0.7-0.3,1.4-0.8,1.9l-5.3,5.3
			c-0.5,0.5-1.2,0.8-1.9,0.8c0,0,0,0,0,0c-0.7,0-1.4-0.3-1.9-0.8l-2.7-2.7C345.7,617.3,345.8,615.6,346.8,614.6z"/>
		<path class="st1" d="M369.1,616.9l-25.4,22.2l2.8,3.2l5.4-4.7l7.4,5l-3,8.1l4,1.5l12.2-32.9L369.1,616.9z M360.9,638.4l-5.6-3.8
			l10.3-9L360.9,638.4z"/>
		<path class="st1" d="M459.5,657.1l-4.1-0.5L441.5,691l4,1.6l4.6-11.3l8.2,0.5l1.7,13.1l4.3-0.5L459.5,657.1z M451.8,677l4.5-11.2
			l1.5,11.6L451.8,677z"/>
		<path class="st1" d="M388.4,628.4l-3.1-2l-3,0.6L363,656.9l0.6,3l3.1,2c1.3,0.9,2.8,1.3,4.3,1.3c0.6,0,1.1-0.1,1.7-0.2
			c2.1-0.4,3.9-1.7,5-3.5l13-20C393.1,635.8,392.1,630.8,388.4,628.4z M387.1,637.1l-13,20c-0.5,0.8-1.4,1.4-2.3,1.6
			c-1,0.2-2,0-2.8-0.5l-1.3-0.8l17-26.2l1.3,0.8C387.7,633.1,388.2,635.4,387.1,637.1z"/>
	</g>
	<g>
		<path class="st1" d="M535.1,683.5c0.1,1.1,0,2-0.4,2.6c-0.6,0.9-1.7,1.4-3.2,1.7l-4,0.6c-1.7,0.2-3.1,0-4.2-0.6
			c-0.8-0.4-1.4-1.2-1.8-2.4c-0.2-0.6-0.4-1.5-0.5-2.9l-1.9-16c-0.2-1.6-0.3-2.6-0.3-3c0.1-1.2,0.4-2,1.2-2.7
			c0.9-0.8,2.1-1.3,3.7-1.5l0.8-0.1l3.4-0.3c1.6-0.2,2.8,0.1,3.5,0.8c0.6,0.6,1,1.4,1.1,2.3l0.7,5.7c0.2,1.6-0.1,2.9-1,3.9
			c-0.6,0.7-1.5,1.1-2.8,1.3l-3.4,0.4l0.1,1.1l3.6-0.4c1.4-0.2,2.5,0.1,3.3,0.8c0.9,0.7,1.4,2,1.6,3.9L535.1,683.5z M527.1,665.5
			l-0.1-0.6c-0.1-0.7-0.5-1-1.4-0.9c-0.8,0.1-1.1,0.5-1,1.2c0.1,0.3,0.1,0.5,0.1,0.6l0.2,1.7l0.7-0.1
			C526.7,667.4,527.2,666.8,527.1,665.5z M529.1,681.8l-0.1-0.6c-0.1-0.6-0.3-1.1-0.7-1.4c-0.3-0.2-0.7-0.3-1.2-0.2l-0.6,0.1
			l0.2,1.7c0.1,1.2,0.6,1.7,1.3,1.6C528.8,682.9,529.2,682.5,529.1,681.8z"/>
		<path class="st1" d="M556.1,683.5l-18.1,3.5l-4.6-22.4l5.7-1.1l3.5,17.2l6.7-1.3l-3.5-17.2l5.7-1.1L556.1,683.5z"/>
		<path class="st1" d="M568.7,660.6l-0.7,1.1l-0.5,0.1l5.3,18.1l-3.4,5.6l-4.3-2.4l1.9-3.6l-4.7-16l-2.7,0.8l5,17.1l-5.2,1.4
			l-6.5-21.9l14.7-4.1L568.7,660.6z"/>
		<path class="st1" d="M583.9,655.2l-0.6,1.2l-0.6,0.2l6.4,16.9l-5.1,1.8l-6.3-16.7l-2.7,0.9l6.3,16.7l-5.1,1.8l-8.1-21.4l14.4-5.1
			L583.9,655.2z"/>
		<path class="st1" d="M613.4,661.7c0.6,1.2,1,2.2,1.1,2.9c0.2,1,0.1,2-0.2,3.1c-0.4,1.2-2,2.4-4.8,3.7l-5.6,2.5
			c-0.7,0.3-1.1,0.6-1.1,0.8c-0.1,0.2,0,0.7,0.2,1.3l-5.3,2.4l-1.1-2.3c-0.4-0.7-0.5-1.5-0.4-2.3c0.1-0.8,0.5-1.5,1.1-2
			c0.4-0.4,1-0.8,1.8-1.1l6.9-3.2c0.8-0.4,1.3-0.8,1.6-1.3c0.5-0.9,0.6-1.7,0.4-2.3l-3.6-7.3c-0.5-1.1-1.1-1.6-1.7-1.6
			c-0.3,0-0.6,0.1-0.8,0.2l-0.5,0.2l2.8,5.6c0.5,1,0.8,1.6,0.9,1.9c0.1,0.6,0.1,1.3,0,2.1c-0.3,1.2-1.2,2.2-2.6,2.8l-1.4,0.6
			l-5.1,2.3c-0.9,0.4-1.7,0.5-2.4,0.3c-0.9-0.2-1.7-1-2.4-2.4l-0.3-0.6c-0.1-0.2-0.2-0.4-0.3-0.6l-3.2-6.5c-0.6-1.3-0.9-2.3-0.7-2.8
			c0.2-0.8,0.7-1.4,1.6-2l-2.9-5.8l15.8-7.2l1.2,2.4l-1.3,2.6l-2.7,1.2l0.9,1.8l2.7-1.2c1.8-0.8,3.2-0.9,4.3-0.4
			c1.3,0.8,2.2,2,3,3.5L613.4,661.7z M594,653.7l-0.9-1.8l-1.8,0.8l0.9,1.8L594,653.7z M598.4,662.5l-2.2-4.5l-1.6,0.7
			c-0.3,0.1-0.5,0.4-0.7,0.8c-0.2,0.4-0.1,0.9,0.1,1.4l0.9,1.9c0.8,1.6,1.4,2.3,1.9,2.2l0.8-0.3c0.8-0.4,1.2-0.6,1.2-0.8
			c0-0.2-0.1-0.5-0.2-0.9L598.4,662.5z"/>
		<path class="st1" d="M639.5,643.1c0.6,0.9,0.9,1.6,0.9,2.3c0.1,0.8-0.2,1.5-0.7,2.1l-4.2,2.5c0.1-0.4,0.1-1.1,0.2-2
			c-0.1-0.6-0.4-1.3-0.8-2l-6.6-10c-0.5-0.8-1.1-1.2-1.6-1.2c-0.3,0.1-0.6,0.2-0.9,0.4c-0.3,0.2-0.6,0.4-0.8,0.6l1,0.6
			c0.5,0.4,1.2,1.2,1.9,2.3l5.6,8.4c0.6,1,0.8,1.9,0.5,2.7c-0.3,0.9-0.9,1.6-1.9,2.2l-4.4,2.7c-0.3,0.2-0.6,0.3-0.8,0.3
			c-0.3,0.1-0.6,0.1-1.1,0l-0.7,0.9c-0.4,0.5-0.9,0.9-1.6,1.3l-3,1.8c-0.8,0.5-1.9,0.7-3.3,0.4c-0.9-0.1-1.6-0.7-2.3-1.7l-7.4-11.1
			c-1-1.5-1.4-3.1-1.1-4.7c0.2-1.1,1-2,2.4-2.8l7.9-4.8c0.9-0.5,1.6-0.9,2.2-1c0.6-0.1,1.2-0.2,1.7-0.1c0.2-0.8,0.7-1.6,1.6-2.5
			c0.5-0.5,1-0.8,1.4-1.1c0.5-0.3,1-0.5,1.4-0.6c0.9-0.6,2-0.8,3.2-0.6c1.2,0.1,2.4,1.1,3.6,3L639.5,643.1z M617.3,646.5l-2.5-3.7
			c-0.8,0.5-1.2,0.9-1.3,1.2c0,0.3,0.1,0.7,0.4,1.1l1.7,2.5L617.3,646.5z M621.6,652.4l-1.3-2l-2,1.2c0.2,0.3,0.3,0.5,0.4,0.6
			l0.2,0.3c0.1,0.2,0.4,0.4,1,0.6c0.2,0.1,0.5,0,0.9-0.2L621.6,652.4z M626.7,647.5l-4.8-7.2c-0.6-0.9-1.1-1.2-1.7-0.8
			c-0.5,0.3-0.5,0.9,0.1,1.8l4.7,7.1c0.4,0.6,0.8,0.7,1.4,0.3C627,648.4,627,648,626.7,647.5z"/>
		<path class="st1" d="M656.2,612.1l-1.5,1.3l11.8,13.3l-4.1,3.3l-11.7-13.1l-1.4,1.1l1,0.4c0.6,0.4,1.3,1,2.2,2l6.7,7.5
			c1.2,1.3,1.3,2.7,0.5,4c-0.2,0.4-0.6,0.7-1.1,1.1l-4,3.2c-0.3,0.2-0.5,0.4-0.7,0.4c-0.3,0.1-0.6,0.2-1.1,0.2l-0.6,1
			c-0.3,0.5-0.8,1.1-1.4,1.5l-2.7,2.2c-0.7,0.6-1.8,0.9-3.2,0.9c-0.9,0-1.7-0.5-2.5-1.4l-8.9-10c-1.2-1.4-1.8-2.8-1.7-4.1
			c0.1-1.3,0.7-2.5,1.9-3.5l7.1-5.8c0.8-0.7,1.5-1.1,2.1-1.3c0.5-0.2,1.1-0.3,1.6-0.3c0.1-1,0.7-2,1.7-2.8c0.3-0.2,0.5-0.4,0.6-0.5
			l4.7-3.8l1.9,0.1L656.2,612.1z M643.2,629.6l-3.1-3.5c-0.7,0.6-1.1,1.1-1.1,1.4c0,0.3,0.2,0.6,0.5,1l2.1,2.4L643.2,629.6z
			 M648.2,634.7l-1.6-1.8l-1.8,1.5c0.2,0.3,0.3,0.5,0.4,0.6l0.3,0.3c0.1,0.2,0.5,0.3,1.1,0.5c0.2,0,0.5-0.1,0.8-0.3L648.2,634.7z
			 M652.5,629.2l-5.7-6.4c-0.7-0.8-1.3-1-1.8-0.7c-0.5,0.4-0.3,1,0.4,1.8l5.7,6.4c0.5,0.5,0.9,0.6,1.5,0.1
			C652.9,630.1,652.9,629.7,652.5,629.2z"/>
		<path class="st1" d="M682.1,610.9l-12.6,12.9L652,608.3l4-4l13.4,11.9l4.7-4.8l-13.4-11.9l4-4L682.1,610.9z"/>
		<path class="st1" d="M657.1,597.8c1.3,1.1,1.4,2.3,0.2,3.7l-1.3,1.4c-0.5,0.5-1.1,0.8-1.7,0.8c-0.7,0-1.3-0.2-1.8-0.7
			c-0.6-0.5-0.9-1.1-1-1.7c0-0.7,0.2-1.3,0.7-1.9l1-1.1C654.4,596.9,655.7,596.7,657.1,597.8z"/>
		<path class="st1" d="M701.2,587l-10.8,14.3L671,588.2l3.4-4.5l14.9,10.1l4-5.3l-14.9-10.1l3.4-4.5L701.2,587z"/>
		<path class="st1" d="M710.3,558c1.9,1,3.2,2.1,3.8,3.4c0.9,1.7,0.9,3.3,0,4.7l-2.3,3.8c-0.4,0.6-0.7,1.1-1,1.3
			c-0.3,0.2-0.8,0.4-1.4,0.5c-0.7,0.1-1.2,0.1-1.7-0.1c0.8,0.4,1.2,1,1.4,1.8c0.1,0.8-0.1,1.6-0.7,2.6l-1.4,2.4l-0.4,0.7
			c-0.1,0.2-0.3,0.5-0.4,0.7c-0.5,0.8-1.2,1.5-2.2,2c-1.5,0.9-3.4,0.7-5.6-0.4l-9.6-5.1c-2.6-1.4-4-2.7-4.2-4
			c-0.2-1.1,0.1-2.4,1-3.8l3.7-6.3c0.6-1.1,1.4-1.8,2.2-2.1c1-0.4,2.1-0.2,3.5,0.5c0.2,0.1,0.4,0.2,0.7,0.4c0.3,0.2,0.6,0.3,0.7,0.4
			l7.9,4.2c0.7,0.4,1.4,0.6,1.9,0.7c0.6,0.1,1-0.1,1.3-0.6l0.3-0.5c0.3-0.5,0.4-1,0.3-1.4c-0.1-0.3-0.4-0.5-1-0.8l-7.4-3.9
			c-0.9-0.5-1.6-0.6-2-0.3c-0.2,0.2-0.4,0.3-0.5,0.5l-0.4,0.7l-4.7-2.5l2-3.4c0.5-0.9,1.2-1.4,2.2-1.7c0.9-0.3,1.9-0.2,2.9,0.1
			c0.7,0.2,1.5,0.6,2.4,1.1L710.3,558z M697.5,568.3l-2.4-1.3c-0.6-0.3-1-0.4-1.3-0.4c-0.3,0-0.7,0.2-1.1,0.6
			c-0.3,0.3-0.6,0.6-0.8,1c-0.2,0.3-0.3,0.6-0.4,0.9c-0.2,0.3-0.3,0.5-0.3,0.6c-0.6,1-0.3,1.9,1,2.6l1.9,1l2.1-3.6l0.5-0.7
			L697.5,568.3z M701.7,573.6l-1.4-0.8l-1.7,2.8l1.3,0.7c1.2,0.6,2,0.5,2.6-0.5c0.4-0.6,0.4-1.2,0-1.6
			C702.2,574,702,573.7,701.7,573.6z"/>
		<path class="st1" d="M688.5,555.6c1.6,0.7,2,1.9,1.1,3.5l-0.8,1.7c-0.3,0.6-0.8,1-1.5,1.2c-0.7,0.2-1.3,0.1-2-0.2
			c-0.7-0.3-1.2-0.8-1.4-1.4c-0.2-0.6-0.2-1.3,0.2-2l0.6-1.3C685.7,555.3,686.9,554.8,688.5,555.6z"/>
		<path class="st1" d="M723.3,538c1,0.4,1.7,1,2,1.9c0.3,0.8,0.3,1.7,0,2.6l-1.3,3.1c-0.3,0.7-0.8,1.3-1.6,1.7
			c-0.4,0.3-1,0.4-1.6,0.4c1.1,1.1,1.3,2.3,0.6,3.6l-0.5,1l-1.7,3.8c-0.4,0.9-0.9,1.5-1.5,1.8c-0.8,0.4-1.8,0.4-3-0.1l-0.9-0.4
			c-0.1,0-0.3-0.1-0.5-0.2c-0.2-0.1-0.4-0.2-0.5-0.2l-6.9-2.7c-1.3-0.5-2.1-1.1-2.4-1.7c-0.4-0.9-0.5-1.7-0.2-2.5l-6.5-2.5l6.7-15.1
			l2.9,1.1l0.7,2.7l-1.2,2.7l1.8,0.7l1.6-3.7c0.5-1.1,1.2-1.7,2-1.8c1.1-0.2,2-0.2,2.8,0.1L723.3,538z M705.7,544.8l-1.9-0.8
			l-0.7,1.5l1.9,0.8L705.7,544.8z M715.2,548.6l-5.1-2l-0.6,1.3c-0.4,0.9,0,1.5,1.1,2l2.3,0.9c1.7,0.7,2.7,0.8,2.9,0.4
			c0.1-0.2,0.2-0.4,0.3-0.6c0.3-0.7,0.4-1.1,0.2-1.3C716.2,549,715.8,548.8,715.2,548.6z M718.1,541.7l-3.5-1.4
			c-0.6-0.2-1.1-0.3-1.4-0.1c-0.2,0.1-0.5,0.5-0.7,1.1l-0.2,0.4l5.6,2.2c0.4,0.2,0.8,0,1.2-0.4c0.3-0.3,0.2-0.7,0-1.1
			C718.8,542.1,718.5,541.8,718.1,541.7z"/>
		<path class="st1" d="M732.5,507.7c1,0.3,1.8,0.6,2.3,1.1c0.6,0.5,0.9,1.2,0.9,2l-1.3,4.5c-0.2-0.4-0.7-0.9-1.2-1.6
			c-0.5-0.4-1.2-0.7-2-0.9l-12-3.1c-1-0.3-1.6-0.2-2,0.2c-0.2,0.3-0.3,0.5-0.4,0.8c-0.1,0.4-0.2,0.7-0.2,0.9l1.1-0.2
			c0.7,0,1.7,0.1,3,0.5l10.1,2.6c1.1,0.3,1.9,0.9,2.3,1.7c0.4,0.8,0.5,1.8,0.1,2.8l-1.4,4.8c-0.1,0.4-0.2,0.6-0.4,0.7
			c-0.1,0.3-0.4,0.5-0.8,0.7l0.1,1.2c0.1,0.6,0,1.3-0.2,2l-1,3.3c-0.3,0.9-1,1.7-2.1,2.4c-0.7,0.4-1.7,0.5-2.9,0.2l-13.4-3.5
			c-1.9-0.5-3.2-1.4-4.1-2.7c-0.6-0.9-0.7-2.1-0.2-3.6l2.5-8.6c0.3-1,0.6-1.7,1-2.1c0.4-0.5,0.8-0.9,1.2-1.2
			c-0.4-0.7-0.6-1.6-0.5-2.9c0-0.7,0.1-1.2,0.3-1.7c0.2-0.5,0.4-1,0.6-1.3c0.3-1,0.9-1.8,1.9-2.5c1-0.6,2.6-0.7,4.8-0.1L732.5,507.7
			z M718.2,524.5l-4.5-1.2c-0.3,0.9-0.3,1.5-0.1,1.7c0.2,0.3,0.5,0.4,1,0.6l3,0.8L718.2,524.5z M726,519.2l-8.6-2.2
			c-1.1-0.3-1.7-0.1-1.8,0.4c-0.2,0.6,0.3,1,1.3,1.3l8.5,2.2c0.7,0.2,1.1,0,1.3-0.7C726.8,519.7,726.6,519.4,726,519.2z M725.6,526
			l-2.4-0.6l-0.6,2.2c0.3,0.1,0.5,0.2,0.7,0.2l0.4,0.1c0.2,0.1,0.6,0,1.2-0.1c0.2-0.1,0.4-0.3,0.5-0.7L725.6,526z"/>
		<path class="st1" d="M733.6,478.3c2.2,0.3,3.8,0.9,4.9,1.8c1.5,1.3,2.1,2.7,1.8,4.3l-0.7,4.3c-0.1,0.7-0.3,1.2-0.4,1.5
			c-0.2,0.3-0.6,0.6-1.2,0.9c-0.6,0.3-1.1,0.5-1.7,0.5c0.9,0.1,1.5,0.5,2,1.2c0.4,0.7,0.5,1.5,0.3,2.7l-0.4,2.7l-0.1,0.8
			c0,0.3-0.1,0.5-0.1,0.8c-0.1,0.9-0.6,1.8-1.3,2.7c-1.1,1.4-2.9,1.9-5.4,1.6l-10.9-1.4c-2.9-0.4-4.8-1.1-5.5-2.3
			c-0.6-1-0.8-2.3-0.6-3.9l1-7.1c0.2-1.2,0.6-2.1,1.3-2.7c0.8-0.7,1.9-0.9,3.4-0.7c0.2,0,0.5,0.1,0.8,0.1c0.4,0,0.6,0.1,0.8,0.1
			l9,1.1c0.8,0.1,1.5,0.1,2.1,0c0.6-0.1,0.9-0.5,1-1l0.1-0.6c0.1-0.6,0-1.1-0.3-1.4c-0.2-0.2-0.6-0.3-1.3-0.4l-8.4-1.1
			c-1-0.1-1.7,0-2,0.4c-0.2,0.2-0.2,0.4-0.3,0.7l-0.1,0.7l-5.3-0.7l0.6-3.9c0.1-1,0.6-1.8,1.4-2.3c0.8-0.6,1.7-0.9,2.8-0.9
			c0.7,0,1.6,0.1,2.7,0.2L733.6,478.3z M725.7,492.3l-2.7-0.3c-0.6-0.1-1.1-0.1-1.4,0.1c-0.3,0.1-0.6,0.4-0.8,1
			c-0.2,0.4-0.3,0.8-0.4,1.2c0,0.3,0,0.6,0,0.9c-0.1,0.4-0.1,0.6-0.1,0.7c-0.2,1.2,0.5,1.8,1.9,2l2.1,0.3l0.6-4.1l0.2-0.9
			L725.7,492.3z M731.5,495.7l-1.6-0.2l-0.5,3.2l1.5,0.2c1.3,0.2,2.1-0.3,2.2-1.3c0.1-0.7-0.1-1.2-0.6-1.5
			C732.2,495.9,731.9,495.8,731.5,495.7z"/>
		<path class="st1" d="M738,454.8c1.1,0,2,0.3,2.6,1c0.6,0.7,1,1.5,1,2.4l0,3.4c0,0.8-0.3,1.5-0.8,2.1c-0.3,0.4-0.7,0.7-1.3,0.9
			c1.4,0.6,2.1,1.7,2,3.1l-0.1,1.1l-0.1,4.1c0,1-0.3,1.7-0.7,2.2c-0.6,0.7-1.5,1-2.8,1l-1,0c-0.1,0-0.3,0-0.5,0c-0.2,0-0.4,0-0.5,0
			l-7.5-0.1c-1.4,0-2.4-0.2-2.9-0.7c-0.7-0.7-1.1-1.4-1.2-2.2l-7-0.1l0.3-16.4l3.1,0l1.7,2.2l-0.1,2.9l2,0l0.1-4
			c0-1.2,0.4-2,1.2-2.4c1-0.6,1.8-0.9,2.6-0.9L738,454.8z M724.2,467.4l-2.1,0l0,1.6l2.1,0L724.2,467.4z M734.5,467.5l-5.5-0.1
			l0,1.4c0,0.9,0.6,1.4,1.8,1.4l2.5,0c1.9,0,2.8-0.2,2.9-0.7c0-0.2,0.1-0.5,0.1-0.7c0-0.7-0.1-1.1-0.3-1.3
			C735.6,467.6,735.2,467.5,734.5,467.5z M734.5,460.1l-3.8,0c-0.6,0-1.1,0.1-1.4,0.4c-0.2,0.2-0.2,0.6-0.3,1.3l0,0.5l6.1,0.1
			c0.5,0,0.8-0.3,0.9-0.8c0.1-0.4,0-0.7-0.4-1C735.4,460.2,735,460.1,734.5,460.1z"/>
		<path class="st1" d="M713.8,460.9c1.8-0.1,2.7,0.8,2.8,2.6l0.1,1.8c0,0.7-0.2,1.3-0.7,1.7c-0.5,0.4-1.1,0.7-1.9,0.7
			c-0.8,0-1.4-0.2-2-0.6c-0.5-0.5-0.8-1.1-0.8-1.8l-0.1-1.4C711.2,462,712,461,713.8,460.9z"/>
		<path class="st1" d="M735.9,429.9c1.1-0.1,2,0.1,2.7,0.7c0.7,0.6,1.1,1.4,1.3,2.3l0.4,3.3c0.1,0.8-0.1,1.5-0.6,2.2
			c-0.3,0.4-0.7,0.8-1.2,1c1.5,0.5,2.3,1.4,2.4,2.9l0.1,1.1l0.3,4.1c0.1,1-0.1,1.7-0.5,2.3c-0.5,0.7-1.4,1.1-2.7,1.3l-1,0.1
			c-0.1,0-0.3,0-0.5,0c-0.2,0-0.4,0-0.5,0.1l-7.5,0.7c-1.4,0.1-2.4,0-2.9-0.4c-0.8-0.6-1.3-1.3-1.4-2.1l-7,0.7l-1.6-16.3l3.1-0.3
			l2,2l0.3,2.9l2-0.2l-0.4-4c-0.1-1.1,0.2-2,0.9-2.5c0.9-0.7,1.7-1.1,2.5-1.1L735.9,429.9z M723.7,443.8l-2.1,0.2l0.2,1.6l2.1-0.2
			L723.7,443.8z M733.9,442.8l-5.5,0.5l0.1,1.4c0.1,0.9,0.7,1.3,2,1.2l2.5-0.2c1.9-0.2,2.8-0.5,2.8-1c0-0.2,0-0.5,0-0.7
			c-0.1-0.7-0.2-1.1-0.5-1.2C735.1,442.8,734.6,442.8,733.9,442.8z M733.1,435.4l-3.7,0.4c-0.6,0.1-1.1,0.2-1.3,0.6
			c-0.1,0.2-0.2,0.6-0.1,1.3l0,0.5l6-0.6c0.5,0,0.8-0.4,0.8-0.9c0-0.4-0.1-0.7-0.6-1C733.9,435.5,733.6,435.4,733.1,435.4z"/>
		<path class="st1" d="M729.3,406.9c1.8-0.4,3.3-0.3,4.4,0.2c1.1,0.5,1.8,1.5,2.1,3l0.6,2.6l0.9-0.2l-1-4.7l5.1-1l1,4.7l2.4-0.5
			c0.9-0.2,1.5-0.3,1.7-0.3c0.6,0,1.1,0.1,1.6,0.5c0.9,0.6,1.5,1.6,1.8,2.9l0.9,4.3c0.2,1,0.3,1.6,0.3,2c0,0.5-0.3,1.2-0.8,1.8
			c-0.5,0.7-1.4,1.2-2.7,1.4l-6.3,1.3l-1.1-5.4l3.7-0.7c0.7-0.1,1.1-0.3,1.3-0.4c0.3-0.2,0.4-0.6,0.3-1.1c-0.2-0.8-0.9-1-2.1-0.8
			l-6,1.2l1.6,7.7l-23.4,4.7l-1.1-5.4l17.8-3.6l-0.4-2.1l-13,2.6c-1.3,0.3-2.6,0.2-3.6-0.3c-1.1-0.5-1.8-1.6-2.2-3.4l-0.7-3.3
			c-0.3-1.3,0-2.5,0.7-3.6c0.5-0.7,1.3-1.2,2.5-1.4L729.3,406.9z M730.6,411.9l-12.4,2.5c-0.9,0.2-1.2,0.6-1.1,1.2
			c0.1,0.7,0.7,0.9,1.6,0.7l12.3-2.5L730.6,411.9z"/>
		<path class="st1" d="M723.8,383.1c1-0.3,2-0.3,2.8,0.2c0.8,0.4,1.4,1.1,1.8,2l1.2,3.2c0.3,0.7,0.3,1.5-0.1,2.3
			c-0.2,0.5-0.5,0.9-0.9,1.3c1.6,0.2,2.5,0.9,2.9,2.3l0.3,1.1l1.3,3.9c0.3,0.9,0.3,1.7,0,2.3c-0.3,0.8-1.1,1.4-2.4,1.8l-1,0.3
			c-0.1,0-0.3,0.1-0.5,0.1c-0.2,0.1-0.4,0.1-0.5,0.2l-7.2,2.2c-1.4,0.4-2.4,0.5-3,0.2c-0.9-0.4-1.5-1-1.9-1.7l-6.7,2.1l-5.2-15.5
			l3-0.9l2.4,1.6l0.9,2.7l1.9-0.6l-1.3-3.8c-0.4-1.1-0.3-2,0.3-2.7c0.7-0.8,1.5-1.4,2.2-1.6L723.8,383.1z M714.9,399.1l-2,0.6
			l0.5,1.5l2-0.6L714.9,399.1z M722.3,389.1l-3.6,1.1c-0.6,0.2-1,0.5-1.2,0.8c-0.1,0.2,0,0.6,0.2,1.3l0.2,0.5l5.8-1.8
			c0.5-0.1,0.7-0.5,0.6-1.1c0-0.4-0.3-0.7-0.8-0.8C723.1,388.9,722.7,388.9,722.3,389.1z M724.7,396.1l-5.2,1.6l0.4,1.3
			c0.3,0.9,1,1.1,2.2,0.8l2.4-0.7c1.8-0.6,2.6-1.1,2.5-1.5c0-0.2-0.1-0.5-0.2-0.7c-0.2-0.7-0.5-1.1-0.7-1.1
			C725.8,395.8,725.4,395.9,724.7,396.1z"/>
		<path class="st1" d="M712.2,362c1.7-0.7,3.1-0.9,4.3-0.6c1.2,0.3,2.1,1.1,2.7,2.5l6.6,14.2l-21.9,9.4l-2.3-5l16.7-7.2l-0.9-2
			l-12.3,5.2c-1.3,0.5-2.4,0.7-3.5,0.5c-1.1-0.2-2-1.1-2.8-2.7l-1.8-3.7c-0.6-1.2-0.6-2.2-0.3-3.1c0.4-0.9,1.7-1.8,4-2.7L712.2,362z
			 M714.5,366.6l-11.6,5c-0.8,0.3-1.1,0.8-0.8,1.4c0.3,0.6,0.8,0.7,1.7,0.4l11.5-4.9L714.5,366.6z"/>
		<path class="st1" d="M695,377.2c1.6-0.8,2.8-0.4,3.7,1.3l0.9,1.6c0.3,0.6,0.4,1.2,0.1,1.8c-0.3,0.6-0.7,1-1.4,1.4
			c-0.7,0.3-1.4,0.4-2.1,0.2c-0.7-0.2-1.2-0.7-1.5-1.3l-0.7-1.2C693,379.2,693.4,377.9,695,377.2z"/>
	</g>
	<path class="st0" d="M349.3,467.1l1.8-0.1c0.8,0,1.4,0.5,1.5,1.3l1.1,8.4c0.1,0.8-0.5,1.6-1.3,1.7l-3,0.4c-0.9,0.1-1.7-0.6-1.7-1.5
		l0.1-8.7C347.8,467.7,348.5,467.1,349.3,467.1z"/>
</g>
</svg>
